M48
METRIC,TZ
T1C0.800
T2C1.000
T3C1.000
T4C1.100
%
G90
G05
T1
X122990Y-120000
X122990Y-125500
X122990Y-130500
X127610Y-108510
X127610Y-136510
X130610Y-120000
X130610Y-125500
X130610Y-130500
X135230Y-108510
X135230Y-136510
X136830Y-114880
X136830Y-117420
X136830Y-119960
X136830Y-122500
X136830Y-125040
X136830Y-127580
X136830Y-130120
X144450Y-114880
X144450Y-117420
X144450Y-119960
X144450Y-122500
X144450Y-125040
X144450Y-127580
X144450Y-130120
X157185Y-114880
X157185Y-117420
X157185Y-119960
X157185Y-122500
X157185Y-125040
X157185Y-127580
X157185Y-130120
X164805Y-114880
X164805Y-117420
X164805Y-119960
X164805Y-122500
X164805Y-125040
X164805Y-127580
X164805Y-130120
X166610Y-108510
X166610Y-136510
X170300Y-114510
X170300Y-120500
X174230Y-108510
X174230Y-136510
X177920Y-114510
X177920Y-120500
T2
X173000Y-118500
X173000Y-125000
T3
X125610Y-58180
X125610Y-98820
X143390Y-58180
X143390Y-98820
X147500Y-119960
X147500Y-125040
X147500Y-142830
X148250Y-50468
X150790Y-50468
X153000Y-142830
X154000Y-119960
X154000Y-125040
X157610Y-58180
X157610Y-98820
X175390Y-58180
X175390Y-98820
T4
X116030Y-108510
X116030Y-136565
X118570Y-108510
X118570Y-136565
X121110Y-108510
X121110Y-136565
X139920Y-106000
X150080Y-106000
X164840Y-103500
X175000Y-103500
X181110Y-108510
X181110Y-136510
X183650Y-108510
X183650Y-136510
X186190Y-108510
X186190Y-136510
M30
