%TF.GenerationSoftware,KiCad,Pcbnew,9.0.1*%
%TF.CreationDate,2025-07-17T11:03:29+03:00*%
%TF.ProjectId,deneme3,64656e65-6d65-4332-9e6b-696361645f70,rev?*%
%TF.SameCoordinates,Original*%
%TF.FileFunction,Copper,L1,Top*%
%TF.FilePolarity,Positive*%
%FSLAX46Y46*%
G04 Gerber Fmt 4.6, Leading zero omitted, Abs format (unit mm)*
G04 Created by KiCad (PCBNEW 9.0.1) date 2025-07-17 11:03:29*
%MOMM*%
%LPD*%
G01*
G04 APERTURE LIST*
G04 Aperture macros list*
%AMRoundRect*
0 Rectangle with rounded corners*
0 $1 Rounding radius*
0 $2 $3 $4 $5 $6 $7 $8 $9 X,Y pos of 4 corners*
0 Add a 4 corners polygon primitive as box body*
4,1,4,$2,$3,$4,$5,$6,$7,$8,$9,$2,$3,0*
0 Add four circle primitives for the rounded corners*
1,1,$1+$1,$2,$3*
1,1,$1+$1,$4,$5*
1,1,$1+$1,$6,$7*
1,1,$1+$1,$8,$9*
0 Add four rect primitives between the rounded corners*
20,1,$1+$1,$2,$3,$4,$5,0*
20,1,$1+$1,$4,$5,$6,$7,0*
20,1,$1+$1,$6,$7,$8,$9,0*
20,1,$1+$1,$8,$9,$2,$3,0*%
G04 Aperture macros list end*
%TA.AperFunction,ComponentPad*%
%ADD10R,1.600000X1.600000*%
%TD*%
%TA.AperFunction,ComponentPad*%
%ADD11O,1.600000X1.600000*%
%TD*%
%TA.AperFunction,ComponentPad*%
%ADD12R,2.200000X2.200000*%
%TD*%
%TA.AperFunction,ComponentPad*%
%ADD13O,2.200000X2.200000*%
%TD*%
%TA.AperFunction,ComponentPad*%
%ADD14R,1.905000X2.000000*%
%TD*%
%TA.AperFunction,ComponentPad*%
%ADD15O,1.905000X2.000000*%
%TD*%
%TA.AperFunction,ComponentPad*%
%ADD16R,1.700000X1.700000*%
%TD*%
%TA.AperFunction,ComponentPad*%
%ADD17C,1.600000*%
%TD*%
%TA.AperFunction,ComponentPad*%
%ADD18R,2.540000X2.540000*%
%TD*%
%TA.AperFunction,ComponentPad*%
%ADD19C,2.540000*%
%TD*%
%TA.AperFunction,ComponentPad*%
%ADD20RoundRect,0.250000X-0.550000X-0.550000X0.550000X-0.550000X0.550000X0.550000X-0.550000X0.550000X0*%
%TD*%
%TA.AperFunction,ComponentPad*%
%ADD21C,1.700000*%
%TD*%
%TA.AperFunction,ComponentPad*%
%ADD22RoundRect,0.250000X0.550000X0.550000X-0.550000X0.550000X-0.550000X-0.550000X0.550000X-0.550000X0*%
%TD*%
%TA.AperFunction,ViaPad*%
%ADD23C,2.000000*%
%TD*%
%TA.AperFunction,Conductor*%
%ADD24C,1.000000*%
%TD*%
G04 APERTURE END LIST*
D10*
%TO.P,D2,1,K*%
%TO.N,Net-(D2-K)*%
X170300000Y-114510000D03*
D11*
%TO.P,D2,2,A*%
%TO.N,+12V*%
X177920000Y-114510000D03*
%TD*%
D10*
%TO.P,D1,1,K*%
%TO.N,Net-(D1-K)*%
X130610000Y-125500000D03*
D11*
%TO.P,D1,2,A*%
%TO.N,+12V*%
X122990000Y-125500000D03*
%TD*%
D12*
%TO.P,D4,1,K*%
%TO.N,+12V*%
X139920000Y-106000000D03*
D13*
%TO.P,D4,2,A*%
%TO.N,Net-(D4-A)*%
X150080000Y-106000000D03*
%TD*%
D14*
%TO.P,Q3,1,G*%
%TO.N,/Q3_G*%
X181110000Y-108510000D03*
D15*
%TO.P,Q3,2,D*%
%TO.N,+12V*%
X183650000Y-108510000D03*
%TO.P,Q3,3,S*%
%TO.N,/OUT_B*%
X186190000Y-108510000D03*
%TD*%
D14*
%TO.P,Q4,1,G*%
%TO.N,/Q4_G*%
X181110000Y-136510000D03*
D15*
%TO.P,Q4,2,D*%
%TO.N,/OUT_B*%
X183650000Y-136510000D03*
%TO.P,Q4,3,S*%
%TO.N,GND*%
X186190000Y-136510000D03*
%TD*%
D16*
%TO.P,J7,1,Pin_1*%
%TO.N,PWM_LO2*%
X154000000Y-125040000D03*
%TD*%
D14*
%TO.P,Q2,1,G*%
%TO.N,/Q2_G*%
X121110000Y-108510000D03*
D15*
%TO.P,Q2,2,D*%
%TO.N,/OUT_A*%
X118570000Y-108510000D03*
%TO.P,Q2,3,S*%
%TO.N,GND*%
X116030000Y-108510000D03*
%TD*%
D16*
%TO.P,J3,1,Pin_1*%
%TO.N,PWM_LO1*%
X147500000Y-119960000D03*
%TD*%
D14*
%TO.P,Q1,1,G*%
%TO.N,/Q1_G*%
X121110000Y-136565000D03*
D15*
%TO.P,Q1,2,D*%
%TO.N,+12V*%
X118570000Y-136565000D03*
%TO.P,Q1,3,S*%
%TO.N,/OUT_A*%
X116030000Y-136565000D03*
%TD*%
D16*
%TO.P,J5,1,Pin_1*%
%TO.N,/OUT_B*%
X153000000Y-142830000D03*
%TD*%
D17*
%TO.P,R1,1*%
%TO.N,/Q1_G*%
X127610000Y-136510000D03*
D11*
%TO.P,R1,2*%
%TO.N,/HO_1*%
X135230000Y-136510000D03*
%TD*%
D17*
%TO.P,C3,1*%
%TO.N,/OUT_A*%
X130610000Y-120000000D03*
D11*
%TO.P,C3,2*%
%TO.N,Net-(J4-Pin_1)*%
X122990000Y-120000000D03*
%TD*%
D18*
%TO.P,U3,1,Vin*%
%TO.N,+24V*%
X143390000Y-58180000D03*
D19*
%TO.P,U3,2,GND*%
%TO.N,GND*%
X125610000Y-58180000D03*
%TO.P,U3,3,GND*%
X125610000Y-98820000D03*
%TO.P,U3,4,Vout*%
%TO.N,Net-(D4-A)*%
X143390000Y-98820000D03*
%TD*%
D17*
%TO.P,R4,1*%
%TO.N,/LO_2*%
X166610000Y-136510000D03*
D11*
%TO.P,R4,2*%
%TO.N,/Q4_G*%
X174230000Y-136510000D03*
%TD*%
D18*
%TO.P,U4,1,Vin*%
%TO.N,+24V*%
X175390000Y-58180000D03*
D19*
%TO.P,U4,2,GND*%
%TO.N,GND*%
X157610000Y-58180000D03*
%TO.P,U4,3,GND*%
X157610000Y-98820000D03*
%TO.P,U4,4,Vout*%
%TO.N,Net-(D3-A)*%
X175390000Y-98820000D03*
%TD*%
D17*
%TO.P,R2,1*%
%TO.N,/LO_1*%
X135230000Y-108510000D03*
D11*
%TO.P,R2,2*%
%TO.N,/Q2_G*%
X127610000Y-108510000D03*
%TD*%
D20*
%TO.P,U1,1,LO*%
%TO.N,/LO_1*%
X136830000Y-114880000D03*
D17*
%TO.P,U1,2,COM*%
%TO.N,GND*%
X136830000Y-117420000D03*
%TO.P,U1,3,VCC*%
%TO.N,+12V*%
X136830000Y-119960000D03*
%TO.P,U1,4,NC*%
%TO.N,unconnected-(U1-NC-Pad4)*%
X136830000Y-122500000D03*
%TO.P,U1,5,VS*%
%TO.N,/OUT_A*%
X136830000Y-125040000D03*
%TO.P,U1,6,VB*%
%TO.N,Net-(D1-K)*%
X136830000Y-127580000D03*
%TO.P,U1,7,HO*%
%TO.N,/HO_1*%
X136830000Y-130120000D03*
%TO.P,U1,8,NC*%
%TO.N,unconnected-(U1-NC-Pad8)*%
X144450000Y-130120000D03*
%TO.P,U1,9,VDD*%
%TO.N,+5V*%
X144450000Y-127580000D03*
%TO.P,U1,10,HIN*%
%TO.N,PWM_HI1*%
X144450000Y-125040000D03*
%TO.P,U1,11,SD*%
%TO.N,GND*%
X144450000Y-122500000D03*
%TO.P,U1,12,LIN*%
%TO.N,PWM_LO1*%
X144450000Y-119960000D03*
%TO.P,U1,13,VSS*%
%TO.N,GND*%
X144450000Y-117420000D03*
%TO.P,U1,14,NC*%
%TO.N,unconnected-(U1-NC-Pad14)*%
X144450000Y-114880000D03*
%TD*%
D16*
%TO.P,J1,1,Pin_1*%
%TO.N,+24V*%
X148250000Y-50467500D03*
D21*
%TO.P,J1,2,Pin_2*%
%TO.N,GND*%
X150790000Y-50467500D03*
%TD*%
D22*
%TO.P,U2,1,LO*%
%TO.N,/LO_2*%
X164805000Y-130120000D03*
D17*
%TO.P,U2,2,COM*%
%TO.N,GND*%
X164805000Y-127580000D03*
%TO.P,U2,3,VCC*%
%TO.N,+12V*%
X164805000Y-125040000D03*
%TO.P,U2,4,NC*%
%TO.N,unconnected-(U2-NC-Pad4)*%
X164805000Y-122500000D03*
%TO.P,U2,5,VS*%
%TO.N,/OUT_B*%
X164805000Y-119960000D03*
%TO.P,U2,6,VB*%
%TO.N,Net-(D2-K)*%
X164805000Y-117420000D03*
%TO.P,U2,7,HO*%
%TO.N,/HO_2*%
X164805000Y-114880000D03*
%TO.P,U2,8,NC*%
%TO.N,unconnected-(U2-NC-Pad8)*%
X157185000Y-114880000D03*
%TO.P,U2,9,VDD*%
%TO.N,+5V*%
X157185000Y-117420000D03*
%TO.P,U2,10,HIN*%
%TO.N,PWM_HI2*%
X157185000Y-119960000D03*
%TO.P,U2,11,SD*%
%TO.N,GND*%
X157185000Y-122500000D03*
%TO.P,U2,12,LIN*%
%TO.N,PWM_LO2*%
X157185000Y-125040000D03*
%TO.P,U2,13,VSS*%
%TO.N,GND*%
X157185000Y-127580000D03*
%TO.P,U2,14,NC*%
%TO.N,unconnected-(U2-NC-Pad14)*%
X157185000Y-130120000D03*
%TD*%
D16*
%TO.P,J4,1,Pin_1*%
%TO.N,Net-(J4-Pin_1)*%
X147500000Y-142830000D03*
%TD*%
%TO.P,J2,1,Pin_1*%
%TO.N,PWM_HI1*%
X147500000Y-125040000D03*
%TD*%
D17*
%TO.P,C1,1*%
%TO.N,Net-(D1-K)*%
X130610000Y-130500000D03*
D11*
%TO.P,C1,2*%
%TO.N,/OUT_A*%
X122990000Y-130500000D03*
%TD*%
D12*
%TO.P,D3,1,K*%
%TO.N,+5V*%
X164840000Y-103500000D03*
D13*
%TO.P,D3,2,A*%
%TO.N,Net-(D3-A)*%
X175000000Y-103500000D03*
%TD*%
D16*
%TO.P,J6,1,Pin_1*%
%TO.N,PWM_HI2*%
X154000000Y-119960000D03*
%TD*%
D17*
%TO.P,R3,1*%
%TO.N,/HO_2*%
X166610000Y-108510000D03*
D11*
%TO.P,R3,2*%
%TO.N,/Q3_G*%
X174230000Y-108510000D03*
%TD*%
D17*
%TO.P,C2,1*%
%TO.N,Net-(D2-K)*%
X170300000Y-120500000D03*
D11*
%TO.P,C2,2*%
%TO.N,/OUT_B*%
X177920000Y-120500000D03*
%TD*%
D23*
%TO.N,+12V*%
X173000000Y-125000000D03*
X173000000Y-118500000D03*
%TD*%
D24*
%TO.N,/OUT_A*%
X133790000Y-125040000D02*
X130610000Y-121860000D01*
X122990000Y-130500000D02*
X122990000Y-129510000D01*
X116030000Y-134470000D02*
X116030000Y-136565000D01*
X122990000Y-129510000D02*
X130610000Y-121890000D01*
X130610000Y-121860000D02*
X130610000Y-120000000D01*
X136830000Y-125040000D02*
X133790000Y-125040000D01*
X118570000Y-110992500D02*
X127577500Y-120000000D01*
X130610000Y-121890000D02*
X130610000Y-120000000D01*
X122990000Y-130500000D02*
X120000000Y-130500000D01*
X127577500Y-120000000D02*
X130610000Y-120000000D01*
X118570000Y-108510000D02*
X118570000Y-110992500D01*
X120000000Y-130500000D02*
X116030000Y-134470000D01*
%TO.N,Net-(D1-K)*%
X135420000Y-127580000D02*
X136830000Y-127580000D01*
X130610000Y-130500000D02*
X132500000Y-130500000D01*
X136830000Y-127580000D02*
X136750000Y-127500000D01*
X130610000Y-125500000D02*
X130610000Y-130500000D01*
X132500000Y-130500000D02*
X135420000Y-127580000D01*
%TO.N,Net-(D2-K)*%
X170300000Y-119140000D02*
X168580000Y-117420000D01*
X168580000Y-117420000D02*
X170300000Y-115700000D01*
X164805000Y-117420000D02*
X168580000Y-117420000D01*
X170300000Y-115700000D02*
X170300000Y-114510000D01*
X170300000Y-120500000D02*
X170300000Y-119140000D01*
%TO.N,/OUT_B*%
X186190000Y-114810000D02*
X180500000Y-120500000D01*
X183650000Y-129150000D02*
X177920000Y-123420000D01*
X183650000Y-139350000D02*
X180170000Y-142830000D01*
X164805000Y-119960000D02*
X167845000Y-123000000D01*
X175420000Y-123000000D02*
X177920000Y-120500000D01*
X177920000Y-123420000D02*
X177920000Y-120500000D01*
X180500000Y-120500000D02*
X177920000Y-120500000D01*
X186190000Y-108510000D02*
X186190000Y-114810000D01*
X183650000Y-136510000D02*
X183650000Y-139350000D01*
X167845000Y-123000000D02*
X175420000Y-123000000D01*
X180170000Y-142830000D02*
X153000000Y-142830000D01*
X183650000Y-136510000D02*
X183650000Y-129150000D01*
%TO.N,Net-(J4-Pin_1)*%
X122990000Y-120000000D02*
X119000000Y-120000000D01*
X119000000Y-120000000D02*
X110000000Y-129000000D01*
X110000000Y-139500000D02*
X113330000Y-142830000D01*
X110000000Y-129000000D02*
X110000000Y-139500000D01*
X113330000Y-142830000D02*
X147500000Y-142830000D01*
%TO.N,GND*%
X144450000Y-122500000D02*
X143000000Y-122500000D01*
X189500000Y-133200000D02*
X189500000Y-99500000D01*
X144450000Y-117420000D02*
X143080000Y-117420000D01*
X153180000Y-53820000D02*
X153250000Y-53820000D01*
X131430000Y-64000000D02*
X143000000Y-64000000D01*
X150500000Y-140000000D02*
X150500000Y-144500000D01*
X180000000Y-147500000D02*
X186190000Y-141310000D01*
X142000000Y-118500000D02*
X142000000Y-123500000D01*
X125610000Y-58180000D02*
X125610000Y-98820000D01*
X143080000Y-117420000D02*
X142000000Y-118500000D01*
X131500000Y-104710000D02*
X125610000Y-98820000D01*
X143500000Y-133500000D02*
X149500000Y-133500000D01*
X153180000Y-53820000D02*
X153180000Y-52857500D01*
X136830000Y-117420000D02*
X134420000Y-117420000D01*
X116030000Y-102970000D02*
X120180000Y-98820000D01*
X142000000Y-123500000D02*
X142000000Y-132000000D01*
X153250000Y-53820000D02*
X157610000Y-58180000D01*
X142000000Y-132000000D02*
X143500000Y-133500000D01*
X157610000Y-107390000D02*
X147580000Y-117420000D01*
X158000000Y-122500000D02*
X157185000Y-122500000D01*
X134420000Y-117420000D02*
X131500000Y-114500000D01*
X186190000Y-141310000D02*
X186190000Y-136510000D01*
X157185000Y-127580000D02*
X164805000Y-127580000D01*
X143000000Y-64000000D02*
X153180000Y-53820000D01*
X163080000Y-127580000D02*
X158000000Y-122500000D01*
X125610000Y-58180000D02*
X131430000Y-64000000D01*
X147580000Y-117420000D02*
X144450000Y-117420000D01*
X153180000Y-52857500D02*
X150790000Y-50467500D01*
X150500000Y-144500000D02*
X153500000Y-147500000D01*
X116030000Y-108510000D02*
X116030000Y-102970000D01*
X149500000Y-133500000D02*
X155420000Y-127580000D01*
X157610000Y-98820000D02*
X157610000Y-107390000D01*
X153500000Y-147500000D02*
X180000000Y-147500000D01*
X131500000Y-114500000D02*
X131500000Y-104710000D01*
X162920000Y-127580000D02*
X150500000Y-140000000D01*
X189500000Y-99500000D02*
X157610000Y-67610000D01*
X164805000Y-127580000D02*
X162920000Y-127580000D01*
X157610000Y-67610000D02*
X157610000Y-58180000D01*
X155420000Y-127580000D02*
X157185000Y-127580000D01*
X143000000Y-122500000D02*
X142000000Y-123500000D01*
X120180000Y-98820000D02*
X125610000Y-98820000D01*
X164805000Y-127580000D02*
X163080000Y-127580000D01*
X186190000Y-136510000D02*
X189500000Y-133200000D01*
%TO.N,+24V*%
X143390000Y-58180000D02*
X143390000Y-55327500D01*
X175390000Y-58180000D02*
X175390000Y-53890000D01*
X169000000Y-47500000D02*
X151217500Y-47500000D01*
X151217500Y-47500000D02*
X148250000Y-50467500D01*
X175390000Y-53890000D02*
X169000000Y-47500000D01*
X143390000Y-55327500D02*
X148250000Y-50467500D01*
%TO.N,+12V*%
X178000000Y-95500000D02*
X142500000Y-95500000D01*
X118570000Y-138930000D02*
X118570000Y-136565000D01*
X119640000Y-140000000D02*
X135500000Y-140000000D01*
X177920000Y-116580000D02*
X177920000Y-114510000D01*
X118500000Y-125500000D02*
X113000000Y-131000000D01*
X138960000Y-119960000D02*
X136830000Y-119960000D01*
X139500000Y-120500000D02*
X138960000Y-119960000D01*
X183650000Y-111850000D02*
X183650000Y-108510000D01*
X139500000Y-119500000D02*
X139040000Y-119960000D01*
X177920000Y-114510000D02*
X180990000Y-114510000D01*
X183650000Y-108510000D02*
X183650000Y-101150000D01*
X180990000Y-114510000D02*
X183650000Y-111850000D01*
X139500000Y-136000000D02*
X139500000Y-120500000D01*
X135500000Y-140000000D02*
X139500000Y-136000000D01*
X118570000Y-138930000D02*
X119640000Y-140000000D01*
X183650000Y-101150000D02*
X178000000Y-95500000D01*
X142500000Y-95500000D02*
X139920000Y-98080000D01*
X139920000Y-106000000D02*
X139500000Y-106420000D01*
X114500000Y-140000000D02*
X117500000Y-140000000D01*
X113000000Y-131000000D02*
X113000000Y-138500000D01*
X122990000Y-125500000D02*
X118500000Y-125500000D01*
X139920000Y-98080000D02*
X139920000Y-106000000D01*
X164805000Y-125040000D02*
X172960000Y-125040000D01*
X139500000Y-106420000D02*
X139500000Y-119500000D01*
X176000000Y-118500000D02*
X177920000Y-116580000D01*
X113000000Y-138500000D02*
X114500000Y-140000000D01*
X139040000Y-119960000D02*
X136830000Y-119960000D01*
X117500000Y-140000000D02*
X118570000Y-138930000D01*
X172960000Y-125040000D02*
X173000000Y-125000000D01*
X173000000Y-118500000D02*
X176000000Y-118500000D01*
%TO.N,+5V*%
X162500000Y-115000000D02*
X162500000Y-108500000D01*
X157185000Y-117420000D02*
X160080000Y-117420000D01*
X150500000Y-119000000D02*
X152080000Y-117420000D01*
X149420000Y-127580000D02*
X150500000Y-126500000D01*
X144450000Y-127580000D02*
X149420000Y-127580000D01*
X150500000Y-126500000D02*
X150500000Y-119000000D01*
X152080000Y-117420000D02*
X157185000Y-117420000D01*
X160080000Y-117420000D02*
X162500000Y-115000000D01*
X164840000Y-106160000D02*
X164840000Y-103500000D01*
X162500000Y-108500000D02*
X164840000Y-106160000D01*
%TO.N,PWM_HI1*%
X144450000Y-125040000D02*
X147500000Y-125040000D01*
%TO.N,PWM_LO1*%
X144450000Y-119960000D02*
X147500000Y-119960000D01*
%TO.N,PWM_HI2*%
X154000000Y-119960000D02*
X157185000Y-119960000D01*
%TO.N,PWM_LO2*%
X154000000Y-125040000D02*
X157185000Y-125040000D01*
%TO.N,/Q1_G*%
X127610000Y-136510000D02*
X121165000Y-136510000D01*
X121165000Y-136510000D02*
X121110000Y-136565000D01*
%TO.N,/Q2_G*%
X127610000Y-108510000D02*
X121110000Y-108510000D01*
%TO.N,/Q3_G*%
X174230000Y-108510000D02*
X181110000Y-108510000D01*
%TO.N,/Q4_G*%
X174230000Y-136510000D02*
X181110000Y-136510000D01*
%TO.N,/HO_1*%
X136830000Y-130120000D02*
X136830000Y-134910000D01*
X136830000Y-134910000D02*
X135230000Y-136510000D01*
%TO.N,/LO_1*%
X136830000Y-110110000D02*
X135230000Y-108510000D01*
X136830000Y-114880000D02*
X136830000Y-110110000D01*
%TO.N,/HO_2*%
X164805000Y-110315000D02*
X166610000Y-108510000D01*
X164805000Y-114880000D02*
X164805000Y-110315000D01*
%TO.N,/LO_2*%
X164805000Y-130120000D02*
X164805000Y-134705000D01*
X164805000Y-134705000D02*
X166610000Y-136510000D01*
%TO.N,Net-(D3-A)*%
X175000000Y-99210000D02*
X175390000Y-98820000D01*
X175000000Y-103500000D02*
X175000000Y-99210000D01*
%TO.N,Net-(D4-A)*%
X150080000Y-105510000D02*
X143390000Y-98820000D01*
X150080000Y-106000000D02*
X150080000Y-105510000D01*
%TD*%
M02*
