%TF.GenerationSoftware,KiCad,Pcbnew,9.0.1*%
%TF.CreationDate,2025-07-17T11:03:29+03:00*%
%TF.ProjectId,deneme3,64656e65-6d65-4332-9e6b-696361645f70,rev?*%
%TF.SameCoordinates,Original*%
%TF.FileFunction,Legend,Top*%
%TF.FilePolarity,Positive*%
%FSLAX46Y46*%
G04 Gerber Fmt 4.6, Leading zero omitted, Abs format (unit mm)*
G04 Created by KiCad (PCBNEW 9.0.1) date 2025-07-17 11:03:29*
%MOMM*%
%LPD*%
G01*
G04 APERTURE LIST*
%ADD10C,0.150000*%
%ADD11C,0.120000*%
G04 APERTURE END LIST*
D10*
X173371905Y-112844819D02*
X173371905Y-111844819D01*
X173371905Y-111844819D02*
X173610000Y-111844819D01*
X173610000Y-111844819D02*
X173752857Y-111892438D01*
X173752857Y-111892438D02*
X173848095Y-111987676D01*
X173848095Y-111987676D02*
X173895714Y-112082914D01*
X173895714Y-112082914D02*
X173943333Y-112273390D01*
X173943333Y-112273390D02*
X173943333Y-112416247D01*
X173943333Y-112416247D02*
X173895714Y-112606723D01*
X173895714Y-112606723D02*
X173848095Y-112701961D01*
X173848095Y-112701961D02*
X173752857Y-112797200D01*
X173752857Y-112797200D02*
X173610000Y-112844819D01*
X173610000Y-112844819D02*
X173371905Y-112844819D01*
X174324286Y-111940057D02*
X174371905Y-111892438D01*
X174371905Y-111892438D02*
X174467143Y-111844819D01*
X174467143Y-111844819D02*
X174705238Y-111844819D01*
X174705238Y-111844819D02*
X174800476Y-111892438D01*
X174800476Y-111892438D02*
X174848095Y-111940057D01*
X174848095Y-111940057D02*
X174895714Y-112035295D01*
X174895714Y-112035295D02*
X174895714Y-112130533D01*
X174895714Y-112130533D02*
X174848095Y-112273390D01*
X174848095Y-112273390D02*
X174276667Y-112844819D01*
X174276667Y-112844819D02*
X174895714Y-112844819D01*
X170038095Y-113164819D02*
X170038095Y-112164819D01*
X170609523Y-113164819D02*
X170180952Y-112593390D01*
X170609523Y-112164819D02*
X170038095Y-112736247D01*
X118871905Y-124834819D02*
X118871905Y-123834819D01*
X118871905Y-123834819D02*
X119110000Y-123834819D01*
X119110000Y-123834819D02*
X119252857Y-123882438D01*
X119252857Y-123882438D02*
X119348095Y-123977676D01*
X119348095Y-123977676D02*
X119395714Y-124072914D01*
X119395714Y-124072914D02*
X119443333Y-124263390D01*
X119443333Y-124263390D02*
X119443333Y-124406247D01*
X119443333Y-124406247D02*
X119395714Y-124596723D01*
X119395714Y-124596723D02*
X119348095Y-124691961D01*
X119348095Y-124691961D02*
X119252857Y-124787200D01*
X119252857Y-124787200D02*
X119110000Y-124834819D01*
X119110000Y-124834819D02*
X118871905Y-124834819D01*
X120395714Y-124834819D02*
X119824286Y-124834819D01*
X120110000Y-124834819D02*
X120110000Y-123834819D01*
X120110000Y-123834819D02*
X120014762Y-123977676D01*
X120014762Y-123977676D02*
X119919524Y-124072914D01*
X119919524Y-124072914D02*
X119824286Y-124120533D01*
X120848095Y-124834819D02*
X120848095Y-123834819D01*
X121419523Y-124834819D02*
X120990952Y-124263390D01*
X121419523Y-123834819D02*
X120848095Y-124406247D01*
X144261905Y-103984819D02*
X144261905Y-102984819D01*
X144261905Y-102984819D02*
X144500000Y-102984819D01*
X144500000Y-102984819D02*
X144642857Y-103032438D01*
X144642857Y-103032438D02*
X144738095Y-103127676D01*
X144738095Y-103127676D02*
X144785714Y-103222914D01*
X144785714Y-103222914D02*
X144833333Y-103413390D01*
X144833333Y-103413390D02*
X144833333Y-103556247D01*
X144833333Y-103556247D02*
X144785714Y-103746723D01*
X144785714Y-103746723D02*
X144738095Y-103841961D01*
X144738095Y-103841961D02*
X144642857Y-103937200D01*
X144642857Y-103937200D02*
X144500000Y-103984819D01*
X144500000Y-103984819D02*
X144261905Y-103984819D01*
X145690476Y-103318152D02*
X145690476Y-103984819D01*
X145452381Y-102937200D02*
X145214286Y-103651485D01*
X145214286Y-103651485D02*
X145833333Y-103651485D01*
X139658095Y-104354819D02*
X139658095Y-103354819D01*
X140229523Y-104354819D02*
X139800952Y-103783390D01*
X140229523Y-103354819D02*
X139658095Y-103926247D01*
X183554761Y-104790057D02*
X183459523Y-104742438D01*
X183459523Y-104742438D02*
X183364285Y-104647200D01*
X183364285Y-104647200D02*
X183221428Y-104504342D01*
X183221428Y-104504342D02*
X183126190Y-104456723D01*
X183126190Y-104456723D02*
X183030952Y-104456723D01*
X183078571Y-104694819D02*
X182983333Y-104647200D01*
X182983333Y-104647200D02*
X182888095Y-104551961D01*
X182888095Y-104551961D02*
X182840476Y-104361485D01*
X182840476Y-104361485D02*
X182840476Y-104028152D01*
X182840476Y-104028152D02*
X182888095Y-103837676D01*
X182888095Y-103837676D02*
X182983333Y-103742438D01*
X182983333Y-103742438D02*
X183078571Y-103694819D01*
X183078571Y-103694819D02*
X183269047Y-103694819D01*
X183269047Y-103694819D02*
X183364285Y-103742438D01*
X183364285Y-103742438D02*
X183459523Y-103837676D01*
X183459523Y-103837676D02*
X183507142Y-104028152D01*
X183507142Y-104028152D02*
X183507142Y-104361485D01*
X183507142Y-104361485D02*
X183459523Y-104551961D01*
X183459523Y-104551961D02*
X183364285Y-104647200D01*
X183364285Y-104647200D02*
X183269047Y-104694819D01*
X183269047Y-104694819D02*
X183078571Y-104694819D01*
X183840476Y-103694819D02*
X184459523Y-103694819D01*
X184459523Y-103694819D02*
X184126190Y-104075771D01*
X184126190Y-104075771D02*
X184269047Y-104075771D01*
X184269047Y-104075771D02*
X184364285Y-104123390D01*
X184364285Y-104123390D02*
X184411904Y-104171009D01*
X184411904Y-104171009D02*
X184459523Y-104266247D01*
X184459523Y-104266247D02*
X184459523Y-104504342D01*
X184459523Y-104504342D02*
X184411904Y-104599580D01*
X184411904Y-104599580D02*
X184364285Y-104647200D01*
X184364285Y-104647200D02*
X184269047Y-104694819D01*
X184269047Y-104694819D02*
X183983333Y-104694819D01*
X183983333Y-104694819D02*
X183888095Y-104647200D01*
X183888095Y-104647200D02*
X183840476Y-104599580D01*
X183554761Y-132790057D02*
X183459523Y-132742438D01*
X183459523Y-132742438D02*
X183364285Y-132647200D01*
X183364285Y-132647200D02*
X183221428Y-132504342D01*
X183221428Y-132504342D02*
X183126190Y-132456723D01*
X183126190Y-132456723D02*
X183030952Y-132456723D01*
X183078571Y-132694819D02*
X182983333Y-132647200D01*
X182983333Y-132647200D02*
X182888095Y-132551961D01*
X182888095Y-132551961D02*
X182840476Y-132361485D01*
X182840476Y-132361485D02*
X182840476Y-132028152D01*
X182840476Y-132028152D02*
X182888095Y-131837676D01*
X182888095Y-131837676D02*
X182983333Y-131742438D01*
X182983333Y-131742438D02*
X183078571Y-131694819D01*
X183078571Y-131694819D02*
X183269047Y-131694819D01*
X183269047Y-131694819D02*
X183364285Y-131742438D01*
X183364285Y-131742438D02*
X183459523Y-131837676D01*
X183459523Y-131837676D02*
X183507142Y-132028152D01*
X183507142Y-132028152D02*
X183507142Y-132361485D01*
X183507142Y-132361485D02*
X183459523Y-132551961D01*
X183459523Y-132551961D02*
X183364285Y-132647200D01*
X183364285Y-132647200D02*
X183269047Y-132694819D01*
X183269047Y-132694819D02*
X183078571Y-132694819D01*
X184364285Y-132028152D02*
X184364285Y-132694819D01*
X184126190Y-131647200D02*
X183888095Y-132361485D01*
X183888095Y-132361485D02*
X184507142Y-132361485D01*
X153666666Y-122114819D02*
X153666666Y-122829104D01*
X153666666Y-122829104D02*
X153619047Y-122971961D01*
X153619047Y-122971961D02*
X153523809Y-123067200D01*
X153523809Y-123067200D02*
X153380952Y-123114819D01*
X153380952Y-123114819D02*
X153285714Y-123114819D01*
X154047619Y-122114819D02*
X154714285Y-122114819D01*
X154714285Y-122114819D02*
X154285714Y-123114819D01*
X118474761Y-113330057D02*
X118379523Y-113282438D01*
X118379523Y-113282438D02*
X118284285Y-113187200D01*
X118284285Y-113187200D02*
X118141428Y-113044342D01*
X118141428Y-113044342D02*
X118046190Y-112996723D01*
X118046190Y-112996723D02*
X117950952Y-112996723D01*
X117998571Y-113234819D02*
X117903333Y-113187200D01*
X117903333Y-113187200D02*
X117808095Y-113091961D01*
X117808095Y-113091961D02*
X117760476Y-112901485D01*
X117760476Y-112901485D02*
X117760476Y-112568152D01*
X117760476Y-112568152D02*
X117808095Y-112377676D01*
X117808095Y-112377676D02*
X117903333Y-112282438D01*
X117903333Y-112282438D02*
X117998571Y-112234819D01*
X117998571Y-112234819D02*
X118189047Y-112234819D01*
X118189047Y-112234819D02*
X118284285Y-112282438D01*
X118284285Y-112282438D02*
X118379523Y-112377676D01*
X118379523Y-112377676D02*
X118427142Y-112568152D01*
X118427142Y-112568152D02*
X118427142Y-112901485D01*
X118427142Y-112901485D02*
X118379523Y-113091961D01*
X118379523Y-113091961D02*
X118284285Y-113187200D01*
X118284285Y-113187200D02*
X118189047Y-113234819D01*
X118189047Y-113234819D02*
X117998571Y-113234819D01*
X118808095Y-112330057D02*
X118855714Y-112282438D01*
X118855714Y-112282438D02*
X118950952Y-112234819D01*
X118950952Y-112234819D02*
X119189047Y-112234819D01*
X119189047Y-112234819D02*
X119284285Y-112282438D01*
X119284285Y-112282438D02*
X119331904Y-112330057D01*
X119331904Y-112330057D02*
X119379523Y-112425295D01*
X119379523Y-112425295D02*
X119379523Y-112520533D01*
X119379523Y-112520533D02*
X119331904Y-112663390D01*
X119331904Y-112663390D02*
X118760476Y-113234819D01*
X118760476Y-113234819D02*
X119379523Y-113234819D01*
X147166666Y-117034819D02*
X147166666Y-117749104D01*
X147166666Y-117749104D02*
X147119047Y-117891961D01*
X147119047Y-117891961D02*
X147023809Y-117987200D01*
X147023809Y-117987200D02*
X146880952Y-118034819D01*
X146880952Y-118034819D02*
X146785714Y-118034819D01*
X147547619Y-117034819D02*
X148166666Y-117034819D01*
X148166666Y-117034819D02*
X147833333Y-117415771D01*
X147833333Y-117415771D02*
X147976190Y-117415771D01*
X147976190Y-117415771D02*
X148071428Y-117463390D01*
X148071428Y-117463390D02*
X148119047Y-117511009D01*
X148119047Y-117511009D02*
X148166666Y-117606247D01*
X148166666Y-117606247D02*
X148166666Y-117844342D01*
X148166666Y-117844342D02*
X148119047Y-117939580D01*
X148119047Y-117939580D02*
X148071428Y-117987200D01*
X148071428Y-117987200D02*
X147976190Y-118034819D01*
X147976190Y-118034819D02*
X147690476Y-118034819D01*
X147690476Y-118034819D02*
X147595238Y-117987200D01*
X147595238Y-117987200D02*
X147547619Y-117939580D01*
X118474761Y-141385057D02*
X118379523Y-141337438D01*
X118379523Y-141337438D02*
X118284285Y-141242200D01*
X118284285Y-141242200D02*
X118141428Y-141099342D01*
X118141428Y-141099342D02*
X118046190Y-141051723D01*
X118046190Y-141051723D02*
X117950952Y-141051723D01*
X117998571Y-141289819D02*
X117903333Y-141242200D01*
X117903333Y-141242200D02*
X117808095Y-141146961D01*
X117808095Y-141146961D02*
X117760476Y-140956485D01*
X117760476Y-140956485D02*
X117760476Y-140623152D01*
X117760476Y-140623152D02*
X117808095Y-140432676D01*
X117808095Y-140432676D02*
X117903333Y-140337438D01*
X117903333Y-140337438D02*
X117998571Y-140289819D01*
X117998571Y-140289819D02*
X118189047Y-140289819D01*
X118189047Y-140289819D02*
X118284285Y-140337438D01*
X118284285Y-140337438D02*
X118379523Y-140432676D01*
X118379523Y-140432676D02*
X118427142Y-140623152D01*
X118427142Y-140623152D02*
X118427142Y-140956485D01*
X118427142Y-140956485D02*
X118379523Y-141146961D01*
X118379523Y-141146961D02*
X118284285Y-141242200D01*
X118284285Y-141242200D02*
X118189047Y-141289819D01*
X118189047Y-141289819D02*
X117998571Y-141289819D01*
X119379523Y-141289819D02*
X118808095Y-141289819D01*
X119093809Y-141289819D02*
X119093809Y-140289819D01*
X119093809Y-140289819D02*
X118998571Y-140432676D01*
X118998571Y-140432676D02*
X118903333Y-140527914D01*
X118903333Y-140527914D02*
X118808095Y-140575533D01*
X152666666Y-139904819D02*
X152666666Y-140619104D01*
X152666666Y-140619104D02*
X152619047Y-140761961D01*
X152619047Y-140761961D02*
X152523809Y-140857200D01*
X152523809Y-140857200D02*
X152380952Y-140904819D01*
X152380952Y-140904819D02*
X152285714Y-140904819D01*
X153619047Y-139904819D02*
X153142857Y-139904819D01*
X153142857Y-139904819D02*
X153095238Y-140381009D01*
X153095238Y-140381009D02*
X153142857Y-140333390D01*
X153142857Y-140333390D02*
X153238095Y-140285771D01*
X153238095Y-140285771D02*
X153476190Y-140285771D01*
X153476190Y-140285771D02*
X153571428Y-140333390D01*
X153571428Y-140333390D02*
X153619047Y-140381009D01*
X153619047Y-140381009D02*
X153666666Y-140476247D01*
X153666666Y-140476247D02*
X153666666Y-140714342D01*
X153666666Y-140714342D02*
X153619047Y-140809580D01*
X153619047Y-140809580D02*
X153571428Y-140857200D01*
X153571428Y-140857200D02*
X153476190Y-140904819D01*
X153476190Y-140904819D02*
X153238095Y-140904819D01*
X153238095Y-140904819D02*
X153142857Y-140857200D01*
X153142857Y-140857200D02*
X153095238Y-140809580D01*
X131253333Y-139114819D02*
X130920000Y-138638628D01*
X130681905Y-139114819D02*
X130681905Y-138114819D01*
X130681905Y-138114819D02*
X131062857Y-138114819D01*
X131062857Y-138114819D02*
X131158095Y-138162438D01*
X131158095Y-138162438D02*
X131205714Y-138210057D01*
X131205714Y-138210057D02*
X131253333Y-138305295D01*
X131253333Y-138305295D02*
X131253333Y-138448152D01*
X131253333Y-138448152D02*
X131205714Y-138543390D01*
X131205714Y-138543390D02*
X131158095Y-138591009D01*
X131158095Y-138591009D02*
X131062857Y-138638628D01*
X131062857Y-138638628D02*
X130681905Y-138638628D01*
X132205714Y-139114819D02*
X131634286Y-139114819D01*
X131920000Y-139114819D02*
X131920000Y-138114819D01*
X131920000Y-138114819D02*
X131824762Y-138257676D01*
X131824762Y-138257676D02*
X131729524Y-138352914D01*
X131729524Y-138352914D02*
X131634286Y-138400533D01*
X126633333Y-117859580D02*
X126585714Y-117907200D01*
X126585714Y-117907200D02*
X126442857Y-117954819D01*
X126442857Y-117954819D02*
X126347619Y-117954819D01*
X126347619Y-117954819D02*
X126204762Y-117907200D01*
X126204762Y-117907200D02*
X126109524Y-117811961D01*
X126109524Y-117811961D02*
X126061905Y-117716723D01*
X126061905Y-117716723D02*
X126014286Y-117526247D01*
X126014286Y-117526247D02*
X126014286Y-117383390D01*
X126014286Y-117383390D02*
X126061905Y-117192914D01*
X126061905Y-117192914D02*
X126109524Y-117097676D01*
X126109524Y-117097676D02*
X126204762Y-117002438D01*
X126204762Y-117002438D02*
X126347619Y-116954819D01*
X126347619Y-116954819D02*
X126442857Y-116954819D01*
X126442857Y-116954819D02*
X126585714Y-117002438D01*
X126585714Y-117002438D02*
X126633333Y-117050057D01*
X126966667Y-116954819D02*
X127585714Y-116954819D01*
X127585714Y-116954819D02*
X127252381Y-117335771D01*
X127252381Y-117335771D02*
X127395238Y-117335771D01*
X127395238Y-117335771D02*
X127490476Y-117383390D01*
X127490476Y-117383390D02*
X127538095Y-117431009D01*
X127538095Y-117431009D02*
X127585714Y-117526247D01*
X127585714Y-117526247D02*
X127585714Y-117764342D01*
X127585714Y-117764342D02*
X127538095Y-117859580D01*
X127538095Y-117859580D02*
X127490476Y-117907200D01*
X127490476Y-117907200D02*
X127395238Y-117954819D01*
X127395238Y-117954819D02*
X127109524Y-117954819D01*
X127109524Y-117954819D02*
X127014286Y-117907200D01*
X127014286Y-117907200D02*
X126966667Y-117859580D01*
X146654819Y-80531904D02*
X147464342Y-80531904D01*
X147464342Y-80531904D02*
X147559580Y-80484285D01*
X147559580Y-80484285D02*
X147607200Y-80436666D01*
X147607200Y-80436666D02*
X147654819Y-80341428D01*
X147654819Y-80341428D02*
X147654819Y-80150952D01*
X147654819Y-80150952D02*
X147607200Y-80055714D01*
X147607200Y-80055714D02*
X147559580Y-80008095D01*
X147559580Y-80008095D02*
X147464342Y-79960476D01*
X147464342Y-79960476D02*
X146654819Y-79960476D01*
X146654819Y-79579523D02*
X146654819Y-78960476D01*
X146654819Y-78960476D02*
X147035771Y-79293809D01*
X147035771Y-79293809D02*
X147035771Y-79150952D01*
X147035771Y-79150952D02*
X147083390Y-79055714D01*
X147083390Y-79055714D02*
X147131009Y-79008095D01*
X147131009Y-79008095D02*
X147226247Y-78960476D01*
X147226247Y-78960476D02*
X147464342Y-78960476D01*
X147464342Y-78960476D02*
X147559580Y-79008095D01*
X147559580Y-79008095D02*
X147607200Y-79055714D01*
X147607200Y-79055714D02*
X147654819Y-79150952D01*
X147654819Y-79150952D02*
X147654819Y-79436666D01*
X147654819Y-79436666D02*
X147607200Y-79531904D01*
X147607200Y-79531904D02*
X147559580Y-79579523D01*
X170253333Y-134344819D02*
X169920000Y-133868628D01*
X169681905Y-134344819D02*
X169681905Y-133344819D01*
X169681905Y-133344819D02*
X170062857Y-133344819D01*
X170062857Y-133344819D02*
X170158095Y-133392438D01*
X170158095Y-133392438D02*
X170205714Y-133440057D01*
X170205714Y-133440057D02*
X170253333Y-133535295D01*
X170253333Y-133535295D02*
X170253333Y-133678152D01*
X170253333Y-133678152D02*
X170205714Y-133773390D01*
X170205714Y-133773390D02*
X170158095Y-133821009D01*
X170158095Y-133821009D02*
X170062857Y-133868628D01*
X170062857Y-133868628D02*
X169681905Y-133868628D01*
X171110476Y-133678152D02*
X171110476Y-134344819D01*
X170872381Y-133297200D02*
X170634286Y-134011485D01*
X170634286Y-134011485D02*
X171253333Y-134011485D01*
X178654819Y-80531904D02*
X179464342Y-80531904D01*
X179464342Y-80531904D02*
X179559580Y-80484285D01*
X179559580Y-80484285D02*
X179607200Y-80436666D01*
X179607200Y-80436666D02*
X179654819Y-80341428D01*
X179654819Y-80341428D02*
X179654819Y-80150952D01*
X179654819Y-80150952D02*
X179607200Y-80055714D01*
X179607200Y-80055714D02*
X179559580Y-80008095D01*
X179559580Y-80008095D02*
X179464342Y-79960476D01*
X179464342Y-79960476D02*
X178654819Y-79960476D01*
X178988152Y-79055714D02*
X179654819Y-79055714D01*
X178607200Y-79293809D02*
X179321485Y-79531904D01*
X179321485Y-79531904D02*
X179321485Y-78912857D01*
X131253333Y-111334819D02*
X130920000Y-110858628D01*
X130681905Y-111334819D02*
X130681905Y-110334819D01*
X130681905Y-110334819D02*
X131062857Y-110334819D01*
X131062857Y-110334819D02*
X131158095Y-110382438D01*
X131158095Y-110382438D02*
X131205714Y-110430057D01*
X131205714Y-110430057D02*
X131253333Y-110525295D01*
X131253333Y-110525295D02*
X131253333Y-110668152D01*
X131253333Y-110668152D02*
X131205714Y-110763390D01*
X131205714Y-110763390D02*
X131158095Y-110811009D01*
X131158095Y-110811009D02*
X131062857Y-110858628D01*
X131062857Y-110858628D02*
X130681905Y-110858628D01*
X131634286Y-110430057D02*
X131681905Y-110382438D01*
X131681905Y-110382438D02*
X131777143Y-110334819D01*
X131777143Y-110334819D02*
X132015238Y-110334819D01*
X132015238Y-110334819D02*
X132110476Y-110382438D01*
X132110476Y-110382438D02*
X132158095Y-110430057D01*
X132158095Y-110430057D02*
X132205714Y-110525295D01*
X132205714Y-110525295D02*
X132205714Y-110620533D01*
X132205714Y-110620533D02*
X132158095Y-110763390D01*
X132158095Y-110763390D02*
X131586667Y-111334819D01*
X131586667Y-111334819D02*
X132205714Y-111334819D01*
X139878095Y-112004819D02*
X139878095Y-112814342D01*
X139878095Y-112814342D02*
X139925714Y-112909580D01*
X139925714Y-112909580D02*
X139973333Y-112957200D01*
X139973333Y-112957200D02*
X140068571Y-113004819D01*
X140068571Y-113004819D02*
X140259047Y-113004819D01*
X140259047Y-113004819D02*
X140354285Y-112957200D01*
X140354285Y-112957200D02*
X140401904Y-112909580D01*
X140401904Y-112909580D02*
X140449523Y-112814342D01*
X140449523Y-112814342D02*
X140449523Y-112004819D01*
X141449523Y-113004819D02*
X140878095Y-113004819D01*
X141163809Y-113004819D02*
X141163809Y-112004819D01*
X141163809Y-112004819D02*
X141068571Y-112147676D01*
X141068571Y-112147676D02*
X140973333Y-112242914D01*
X140973333Y-112242914D02*
X140878095Y-112290533D01*
X145324819Y-50800833D02*
X146039104Y-50800833D01*
X146039104Y-50800833D02*
X146181961Y-50848452D01*
X146181961Y-50848452D02*
X146277200Y-50943690D01*
X146277200Y-50943690D02*
X146324819Y-51086547D01*
X146324819Y-51086547D02*
X146324819Y-51181785D01*
X146324819Y-49800833D02*
X146324819Y-50372261D01*
X146324819Y-50086547D02*
X145324819Y-50086547D01*
X145324819Y-50086547D02*
X145467676Y-50181785D01*
X145467676Y-50181785D02*
X145562914Y-50277023D01*
X145562914Y-50277023D02*
X145610533Y-50372261D01*
X160153095Y-131624819D02*
X160153095Y-132434342D01*
X160153095Y-132434342D02*
X160200714Y-132529580D01*
X160200714Y-132529580D02*
X160248333Y-132577200D01*
X160248333Y-132577200D02*
X160343571Y-132624819D01*
X160343571Y-132624819D02*
X160534047Y-132624819D01*
X160534047Y-132624819D02*
X160629285Y-132577200D01*
X160629285Y-132577200D02*
X160676904Y-132529580D01*
X160676904Y-132529580D02*
X160724523Y-132434342D01*
X160724523Y-132434342D02*
X160724523Y-131624819D01*
X161153095Y-131720057D02*
X161200714Y-131672438D01*
X161200714Y-131672438D02*
X161295952Y-131624819D01*
X161295952Y-131624819D02*
X161534047Y-131624819D01*
X161534047Y-131624819D02*
X161629285Y-131672438D01*
X161629285Y-131672438D02*
X161676904Y-131720057D01*
X161676904Y-131720057D02*
X161724523Y-131815295D01*
X161724523Y-131815295D02*
X161724523Y-131910533D01*
X161724523Y-131910533D02*
X161676904Y-132053390D01*
X161676904Y-132053390D02*
X161105476Y-132624819D01*
X161105476Y-132624819D02*
X161724523Y-132624819D01*
X147166666Y-139784819D02*
X147166666Y-140499104D01*
X147166666Y-140499104D02*
X147119047Y-140641961D01*
X147119047Y-140641961D02*
X147023809Y-140737200D01*
X147023809Y-140737200D02*
X146880952Y-140784819D01*
X146880952Y-140784819D02*
X146785714Y-140784819D01*
X148071428Y-140118152D02*
X148071428Y-140784819D01*
X147833333Y-139737200D02*
X147595238Y-140451485D01*
X147595238Y-140451485D02*
X148214285Y-140451485D01*
X147166666Y-122114819D02*
X147166666Y-122829104D01*
X147166666Y-122829104D02*
X147119047Y-122971961D01*
X147119047Y-122971961D02*
X147023809Y-123067200D01*
X147023809Y-123067200D02*
X146880952Y-123114819D01*
X146880952Y-123114819D02*
X146785714Y-123114819D01*
X147595238Y-122210057D02*
X147642857Y-122162438D01*
X147642857Y-122162438D02*
X147738095Y-122114819D01*
X147738095Y-122114819D02*
X147976190Y-122114819D01*
X147976190Y-122114819D02*
X148071428Y-122162438D01*
X148071428Y-122162438D02*
X148119047Y-122210057D01*
X148119047Y-122210057D02*
X148166666Y-122305295D01*
X148166666Y-122305295D02*
X148166666Y-122400533D01*
X148166666Y-122400533D02*
X148119047Y-122543390D01*
X148119047Y-122543390D02*
X147547619Y-123114819D01*
X147547619Y-123114819D02*
X148166666Y-123114819D01*
X120443333Y-129859580D02*
X120395714Y-129907200D01*
X120395714Y-129907200D02*
X120252857Y-129954819D01*
X120252857Y-129954819D02*
X120157619Y-129954819D01*
X120157619Y-129954819D02*
X120014762Y-129907200D01*
X120014762Y-129907200D02*
X119919524Y-129811961D01*
X119919524Y-129811961D02*
X119871905Y-129716723D01*
X119871905Y-129716723D02*
X119824286Y-129526247D01*
X119824286Y-129526247D02*
X119824286Y-129383390D01*
X119824286Y-129383390D02*
X119871905Y-129192914D01*
X119871905Y-129192914D02*
X119919524Y-129097676D01*
X119919524Y-129097676D02*
X120014762Y-129002438D01*
X120014762Y-129002438D02*
X120157619Y-128954819D01*
X120157619Y-128954819D02*
X120252857Y-128954819D01*
X120252857Y-128954819D02*
X120395714Y-129002438D01*
X120395714Y-129002438D02*
X120443333Y-129050057D01*
X121395714Y-129954819D02*
X120824286Y-129954819D01*
X121110000Y-129954819D02*
X121110000Y-128954819D01*
X121110000Y-128954819D02*
X121014762Y-129097676D01*
X121014762Y-129097676D02*
X120919524Y-129192914D01*
X120919524Y-129192914D02*
X120824286Y-129240533D01*
X161261905Y-103404819D02*
X161261905Y-102404819D01*
X161261905Y-102404819D02*
X161500000Y-102404819D01*
X161500000Y-102404819D02*
X161642857Y-102452438D01*
X161642857Y-102452438D02*
X161738095Y-102547676D01*
X161738095Y-102547676D02*
X161785714Y-102642914D01*
X161785714Y-102642914D02*
X161833333Y-102833390D01*
X161833333Y-102833390D02*
X161833333Y-102976247D01*
X161833333Y-102976247D02*
X161785714Y-103166723D01*
X161785714Y-103166723D02*
X161738095Y-103261961D01*
X161738095Y-103261961D02*
X161642857Y-103357200D01*
X161642857Y-103357200D02*
X161500000Y-103404819D01*
X161500000Y-103404819D02*
X161261905Y-103404819D01*
X162166667Y-102404819D02*
X162785714Y-102404819D01*
X162785714Y-102404819D02*
X162452381Y-102785771D01*
X162452381Y-102785771D02*
X162595238Y-102785771D01*
X162595238Y-102785771D02*
X162690476Y-102833390D01*
X162690476Y-102833390D02*
X162738095Y-102881009D01*
X162738095Y-102881009D02*
X162785714Y-102976247D01*
X162785714Y-102976247D02*
X162785714Y-103214342D01*
X162785714Y-103214342D02*
X162738095Y-103309580D01*
X162738095Y-103309580D02*
X162690476Y-103357200D01*
X162690476Y-103357200D02*
X162595238Y-103404819D01*
X162595238Y-103404819D02*
X162309524Y-103404819D01*
X162309524Y-103404819D02*
X162214286Y-103357200D01*
X162214286Y-103357200D02*
X162166667Y-103309580D01*
X164578095Y-101854819D02*
X164578095Y-100854819D01*
X165149523Y-101854819D02*
X164720952Y-101283390D01*
X165149523Y-100854819D02*
X164578095Y-101426247D01*
X153666666Y-117034819D02*
X153666666Y-117749104D01*
X153666666Y-117749104D02*
X153619047Y-117891961D01*
X153619047Y-117891961D02*
X153523809Y-117987200D01*
X153523809Y-117987200D02*
X153380952Y-118034819D01*
X153380952Y-118034819D02*
X153285714Y-118034819D01*
X154571428Y-117034819D02*
X154380952Y-117034819D01*
X154380952Y-117034819D02*
X154285714Y-117082438D01*
X154285714Y-117082438D02*
X154238095Y-117130057D01*
X154238095Y-117130057D02*
X154142857Y-117272914D01*
X154142857Y-117272914D02*
X154095238Y-117463390D01*
X154095238Y-117463390D02*
X154095238Y-117844342D01*
X154095238Y-117844342D02*
X154142857Y-117939580D01*
X154142857Y-117939580D02*
X154190476Y-117987200D01*
X154190476Y-117987200D02*
X154285714Y-118034819D01*
X154285714Y-118034819D02*
X154476190Y-118034819D01*
X154476190Y-118034819D02*
X154571428Y-117987200D01*
X154571428Y-117987200D02*
X154619047Y-117939580D01*
X154619047Y-117939580D02*
X154666666Y-117844342D01*
X154666666Y-117844342D02*
X154666666Y-117606247D01*
X154666666Y-117606247D02*
X154619047Y-117511009D01*
X154619047Y-117511009D02*
X154571428Y-117463390D01*
X154571428Y-117463390D02*
X154476190Y-117415771D01*
X154476190Y-117415771D02*
X154285714Y-117415771D01*
X154285714Y-117415771D02*
X154190476Y-117463390D01*
X154190476Y-117463390D02*
X154142857Y-117511009D01*
X154142857Y-117511009D02*
X154095238Y-117606247D01*
X170253333Y-106594819D02*
X169920000Y-106118628D01*
X169681905Y-106594819D02*
X169681905Y-105594819D01*
X169681905Y-105594819D02*
X170062857Y-105594819D01*
X170062857Y-105594819D02*
X170158095Y-105642438D01*
X170158095Y-105642438D02*
X170205714Y-105690057D01*
X170205714Y-105690057D02*
X170253333Y-105785295D01*
X170253333Y-105785295D02*
X170253333Y-105928152D01*
X170253333Y-105928152D02*
X170205714Y-106023390D01*
X170205714Y-106023390D02*
X170158095Y-106071009D01*
X170158095Y-106071009D02*
X170062857Y-106118628D01*
X170062857Y-106118628D02*
X169681905Y-106118628D01*
X170586667Y-105594819D02*
X171205714Y-105594819D01*
X171205714Y-105594819D02*
X170872381Y-105975771D01*
X170872381Y-105975771D02*
X171015238Y-105975771D01*
X171015238Y-105975771D02*
X171110476Y-106023390D01*
X171110476Y-106023390D02*
X171158095Y-106071009D01*
X171158095Y-106071009D02*
X171205714Y-106166247D01*
X171205714Y-106166247D02*
X171205714Y-106404342D01*
X171205714Y-106404342D02*
X171158095Y-106499580D01*
X171158095Y-106499580D02*
X171110476Y-106547200D01*
X171110476Y-106547200D02*
X171015238Y-106594819D01*
X171015238Y-106594819D02*
X170729524Y-106594819D01*
X170729524Y-106594819D02*
X170634286Y-106547200D01*
X170634286Y-106547200D02*
X170586667Y-106499580D01*
X173943333Y-123109580D02*
X173895714Y-123157200D01*
X173895714Y-123157200D02*
X173752857Y-123204819D01*
X173752857Y-123204819D02*
X173657619Y-123204819D01*
X173657619Y-123204819D02*
X173514762Y-123157200D01*
X173514762Y-123157200D02*
X173419524Y-123061961D01*
X173419524Y-123061961D02*
X173371905Y-122966723D01*
X173371905Y-122966723D02*
X173324286Y-122776247D01*
X173324286Y-122776247D02*
X173324286Y-122633390D01*
X173324286Y-122633390D02*
X173371905Y-122442914D01*
X173371905Y-122442914D02*
X173419524Y-122347676D01*
X173419524Y-122347676D02*
X173514762Y-122252438D01*
X173514762Y-122252438D02*
X173657619Y-122204819D01*
X173657619Y-122204819D02*
X173752857Y-122204819D01*
X173752857Y-122204819D02*
X173895714Y-122252438D01*
X173895714Y-122252438D02*
X173943333Y-122300057D01*
X174324286Y-122300057D02*
X174371905Y-122252438D01*
X174371905Y-122252438D02*
X174467143Y-122204819D01*
X174467143Y-122204819D02*
X174705238Y-122204819D01*
X174705238Y-122204819D02*
X174800476Y-122252438D01*
X174800476Y-122252438D02*
X174848095Y-122300057D01*
X174848095Y-122300057D02*
X174895714Y-122395295D01*
X174895714Y-122395295D02*
X174895714Y-122490533D01*
X174895714Y-122490533D02*
X174848095Y-122633390D01*
X174848095Y-122633390D02*
X174276667Y-123204819D01*
X174276667Y-123204819D02*
X174895714Y-123204819D01*
D11*
%TO.C,D2*%
X171340000Y-114510000D02*
X171990000Y-114510000D01*
X171990000Y-113390000D02*
X171990000Y-115630000D01*
X171990000Y-115630000D02*
X176230000Y-115630000D01*
X172590000Y-113390000D02*
X172590000Y-115630000D01*
X172710000Y-113390000D02*
X172710000Y-115630000D01*
X172830000Y-113390000D02*
X172830000Y-115630000D01*
X176230000Y-113390000D02*
X171990000Y-113390000D01*
X176230000Y-115630000D02*
X176230000Y-113390000D01*
X176880000Y-114510000D02*
X176230000Y-114510000D01*
%TO.C,D1*%
X124030000Y-125500000D02*
X124680000Y-125500000D01*
X124680000Y-124380000D02*
X124680000Y-126620000D01*
X124680000Y-126620000D02*
X128920000Y-126620000D01*
X128080000Y-126620000D02*
X128080000Y-124380000D01*
X128200000Y-126620000D02*
X128200000Y-124380000D01*
X128320000Y-126620000D02*
X128320000Y-124380000D01*
X128920000Y-124380000D02*
X124680000Y-124380000D01*
X128920000Y-126620000D02*
X128920000Y-124380000D01*
X129570000Y-125500000D02*
X128920000Y-125500000D01*
%TO.C,D4*%
X141260000Y-106000000D02*
X142280000Y-106000000D01*
X142280000Y-104530000D02*
X142280000Y-107470000D01*
X142280000Y-107470000D02*
X147720000Y-107470000D01*
X143060000Y-104530000D02*
X143060000Y-107470000D01*
X143180000Y-104530000D02*
X143180000Y-107470000D01*
X143300000Y-104530000D02*
X143300000Y-107470000D01*
X147720000Y-104530000D02*
X142280000Y-104530000D01*
X147720000Y-107470000D02*
X147720000Y-104530000D01*
X148740000Y-106000000D02*
X147720000Y-106000000D01*
%TO.C,Q3*%
X178530000Y-105240000D02*
X178530000Y-109881000D01*
X178530000Y-105240000D02*
X188770000Y-105240000D01*
X178530000Y-106750000D02*
X188770000Y-106750000D01*
X178530000Y-109881000D02*
X188770000Y-109881000D01*
X181800000Y-105240000D02*
X181800000Y-106750000D01*
X185501000Y-105240000D02*
X185501000Y-106750000D01*
X188770000Y-105240000D02*
X188770000Y-109881000D01*
%TO.C,Q4*%
X178530000Y-133240000D02*
X178530000Y-137881000D01*
X178530000Y-133240000D02*
X188770000Y-133240000D01*
X178530000Y-134750000D02*
X188770000Y-134750000D01*
X178530000Y-137881000D02*
X188770000Y-137881000D01*
X181800000Y-133240000D02*
X181800000Y-134750000D01*
X185501000Y-133240000D02*
X185501000Y-134750000D01*
X188770000Y-133240000D02*
X188770000Y-137881000D01*
%TO.C,J7*%
X152620000Y-123660000D02*
X154000000Y-123660000D01*
X152620000Y-125040000D02*
X152620000Y-123660000D01*
X152620000Y-126310000D02*
X152620000Y-126420000D01*
X152620000Y-126310000D02*
X155380000Y-126310000D01*
X152620000Y-126420000D02*
X155380000Y-126420000D01*
X155380000Y-126310000D02*
X155380000Y-126420000D01*
%TO.C,Q2*%
X113450000Y-111780000D02*
X113450000Y-107139000D01*
X116719000Y-111780000D02*
X116719000Y-110270000D01*
X120420000Y-111780000D02*
X120420000Y-110270000D01*
X123690000Y-107139000D02*
X113450000Y-107139000D01*
X123690000Y-110270000D02*
X113450000Y-110270000D01*
X123690000Y-111780000D02*
X113450000Y-111780000D01*
X123690000Y-111780000D02*
X123690000Y-107139000D01*
%TO.C,J3*%
X146120000Y-118580000D02*
X147500000Y-118580000D01*
X146120000Y-119960000D02*
X146120000Y-118580000D01*
X146120000Y-121230000D02*
X146120000Y-121340000D01*
X146120000Y-121230000D02*
X148880000Y-121230000D01*
X146120000Y-121340000D02*
X148880000Y-121340000D01*
X148880000Y-121230000D02*
X148880000Y-121340000D01*
%TO.C,Q1*%
X113450000Y-139835000D02*
X113450000Y-135194000D01*
X116719000Y-139835000D02*
X116719000Y-138325000D01*
X120420000Y-139835000D02*
X120420000Y-138325000D01*
X123690000Y-135194000D02*
X113450000Y-135194000D01*
X123690000Y-138325000D02*
X113450000Y-138325000D01*
X123690000Y-139835000D02*
X113450000Y-139835000D01*
X123690000Y-139835000D02*
X123690000Y-135194000D01*
%TO.C,J5*%
X151620000Y-141450000D02*
X153000000Y-141450000D01*
X151620000Y-142830000D02*
X151620000Y-141450000D01*
X151620000Y-144100000D02*
X151620000Y-144210000D01*
X151620000Y-144100000D02*
X154380000Y-144100000D01*
X151620000Y-144210000D02*
X154380000Y-144210000D01*
X154380000Y-144100000D02*
X154380000Y-144210000D01*
%TO.C,R1*%
X128150000Y-135140000D02*
X134690000Y-135140000D01*
X128150000Y-135470000D02*
X128150000Y-135140000D01*
X128150000Y-137550000D02*
X128150000Y-137880000D01*
X128150000Y-137880000D02*
X134690000Y-137880000D01*
X134690000Y-135140000D02*
X134690000Y-135470000D01*
X134690000Y-137880000D02*
X134690000Y-137550000D01*
%TO.C,C3*%
X123530000Y-118630000D02*
X123530000Y-118960000D01*
X123530000Y-121370000D02*
X123530000Y-121040000D01*
X130070000Y-118630000D02*
X123530000Y-118630000D01*
X130070000Y-118960000D02*
X130070000Y-118630000D01*
X130070000Y-121040000D02*
X130070000Y-121370000D01*
X130070000Y-121370000D02*
X123530000Y-121370000D01*
%TO.C,U3*%
X123775000Y-56625000D02*
X123775000Y-100375000D01*
X123775000Y-100375000D02*
X145225000Y-100375000D01*
X124030000Y-56630000D02*
X124030000Y-59760000D01*
X124030000Y-97240000D02*
X124030000Y-100355000D01*
X124030000Y-97240000D02*
X127190000Y-97240000D01*
X124604204Y-80147397D02*
X124604204Y-89847397D01*
X124706783Y-71361636D02*
X124706783Y-67761636D01*
X124806783Y-67661636D02*
X127106783Y-67661636D01*
X125081783Y-67211636D02*
X126831783Y-67211636D01*
X125081783Y-67661636D02*
X125081783Y-67211636D01*
X125081783Y-71911636D02*
X125081783Y-71461636D01*
X126104204Y-91347397D02*
X135804204Y-91347397D01*
X126595304Y-71462636D02*
X126689856Y-71462636D01*
X126831783Y-67211636D02*
X126831783Y-67661636D01*
X126831783Y-71461636D02*
X126831783Y-71911636D01*
X126831783Y-71911636D02*
X125081783Y-71911636D01*
X127106783Y-70591358D02*
X124806783Y-70591358D01*
X127106783Y-71461636D02*
X124806783Y-71461636D01*
X127190000Y-56630000D02*
X127190000Y-59760000D01*
X127190000Y-59760000D02*
X124030000Y-59760000D01*
X127190000Y-97240000D02*
X127190000Y-100355000D01*
X127206783Y-67761636D02*
X127206783Y-71361636D01*
X129693330Y-68190233D02*
X129693330Y-69030233D01*
X129693330Y-68190233D02*
X134323330Y-68190233D01*
X129693330Y-69030233D02*
X134323330Y-69030233D01*
X129693330Y-69890233D02*
X129693330Y-70730233D01*
X129693330Y-69890233D02*
X134323330Y-69890233D01*
X129693330Y-70730233D02*
X134323330Y-70730233D01*
X129693330Y-71590233D02*
X129693330Y-72430233D01*
X129693330Y-71590233D02*
X134323330Y-71590233D01*
X129693330Y-72430233D02*
X134323330Y-72430233D01*
X129693330Y-73290233D02*
X129693330Y-74130233D01*
X129693330Y-73290233D02*
X134323330Y-73290233D01*
X129693330Y-74130233D02*
X134323330Y-74130233D01*
X129693330Y-74990233D02*
X129693330Y-75830233D01*
X129693330Y-74990233D02*
X134323330Y-74990233D01*
X129693330Y-75830233D02*
X134323330Y-75830233D01*
X134323330Y-67007797D02*
X134323330Y-77012670D01*
X134323330Y-77012670D02*
X134400894Y-77090233D01*
X134400894Y-66930233D02*
X134323330Y-67007797D01*
X134400894Y-66930233D02*
X143752390Y-66930233D01*
X134400894Y-77090233D02*
X143752390Y-77090233D01*
X135804204Y-78647397D02*
X126104204Y-78647397D01*
X137304204Y-89847397D02*
X137304204Y-80147397D01*
X139757706Y-91429783D02*
X139757706Y-81529783D01*
X139807706Y-81479783D02*
X144707705Y-81479783D01*
X141810000Y-97240000D02*
X141810000Y-100400000D01*
X141810000Y-97240000D02*
X144970000Y-97240000D01*
X141815000Y-56630000D02*
X141810000Y-59760000D01*
X142120000Y-59760000D02*
X141810000Y-59760000D01*
X142385851Y-66929233D02*
X142224313Y-66929233D01*
X142409705Y-94828681D02*
X144009704Y-94828681D01*
X142409705Y-95628681D02*
X142409705Y-94828681D01*
X142729705Y-95628681D02*
X142729705Y-94828681D01*
X142907706Y-82540553D02*
X142907706Y-84619014D01*
X142963330Y-77090233D02*
X142963330Y-66930233D01*
X143382706Y-82528594D02*
X143387938Y-82504147D01*
X143382706Y-82528594D02*
X143407705Y-82540553D01*
X143382706Y-82528594D02*
X143413925Y-82535764D01*
X143407705Y-84619014D02*
X143407705Y-82540553D01*
X143439100Y-82516385D02*
X143407705Y-82540553D01*
X143689704Y-94828681D02*
X143689704Y-95628681D01*
X143752390Y-66930233D02*
X144043329Y-68580233D01*
X144009704Y-95628681D02*
X142409705Y-95628681D01*
X144009704Y-95628681D02*
X144009704Y-94828681D01*
X144043329Y-68580233D02*
X144043329Y-75440233D01*
X144043329Y-75440233D02*
X143752390Y-77090233D01*
X144707705Y-91479783D02*
X139807706Y-91479783D01*
X144757705Y-81529783D02*
X144757705Y-91429783D01*
X144758705Y-90038978D02*
X144758705Y-89994106D01*
X144758705Y-90122312D02*
X144758705Y-90088357D01*
X144970000Y-56630000D02*
X144970000Y-57930000D01*
X144970000Y-97240000D02*
X144970000Y-100355000D01*
X145225000Y-56625000D02*
X123775000Y-56625000D01*
X145225000Y-100375000D02*
X145225000Y-56625000D01*
X124604204Y-80147397D02*
G75*
G02*
X126104204Y-78647404I1499996J-3D01*
G01*
X124706783Y-67761636D02*
G75*
G02*
X124806783Y-67661583I100017J36D01*
G01*
X124806783Y-71461636D02*
G75*
G02*
X124706764Y-71361636I17J100036D01*
G01*
X125917938Y-82027611D02*
G75*
G02*
X125952053Y-82161799I-52938J-84889D01*
G01*
X125917938Y-82027611D02*
G75*
G02*
X127984410Y-79961137I793662J1272811D01*
G01*
X125952024Y-87833011D02*
G75*
G02*
X125917925Y-87967162I-87024J-49289D01*
G01*
X125952024Y-87833011D02*
G75*
G02*
X125952024Y-82161783I5002180J2835614D01*
G01*
X126104204Y-91347397D02*
G75*
G02*
X124604203Y-89847397I-4J1499997D01*
G01*
X127106783Y-67661636D02*
G75*
G02*
X127206764Y-67761636I17J-99964D01*
G01*
X127206783Y-71361636D02*
G75*
G02*
X127106783Y-71461583I-99983J36D01*
G01*
X127984417Y-90033663D02*
G75*
G02*
X128118602Y-89999555I84883J-52937D01*
G01*
X127984418Y-90033662D02*
G75*
G02*
X125917938Y-87967182I-1272858J793622D01*
G01*
X128118590Y-79995218D02*
G75*
G02*
X133789815Y-79995221I2835610J-5002182D01*
G01*
X128118591Y-79995217D02*
G75*
G02*
X127984440Y-79961118I-49291J87017D01*
G01*
X133789816Y-89999577D02*
G75*
G02*
X133923961Y-90033680I49284J-87023D01*
G01*
X133789817Y-89999576D02*
G75*
G02*
X128118588Y-89999579I-2835617J5002176D01*
G01*
X133923989Y-79961132D02*
G75*
G02*
X135990469Y-82027611I1272851J-793628D01*
G01*
X133923990Y-79961131D02*
G75*
G02*
X133789800Y-79995249I-84890J52931D01*
G01*
X135804204Y-78647397D02*
G75*
G02*
X137304203Y-80147397I-4J-1500003D01*
G01*
X135956383Y-82161783D02*
G75*
G02*
X135990488Y-82027641I87017J49283D01*
G01*
X135956383Y-82161784D02*
G75*
G02*
X135956383Y-87833011I-5002178J-2835614D01*
G01*
X135990469Y-87967183D02*
G75*
G02*
X133923982Y-90033667I-793669J-1272817D01*
G01*
X135990469Y-87967183D02*
G75*
G02*
X135956359Y-87832998I52931J84883D01*
G01*
X137304204Y-89847397D02*
G75*
G02*
X135804204Y-91347404I-1500004J-3D01*
G01*
X139757706Y-81529783D02*
G75*
G02*
X139807706Y-81479806I49994J-17D01*
G01*
X139807706Y-91479783D02*
G75*
G02*
X139757717Y-91429783I-6J49983D01*
G01*
X142927473Y-82504148D02*
G75*
G02*
X142876310Y-82516385I230227J-1075652D01*
G01*
X144707705Y-81479783D02*
G75*
G02*
X144757717Y-81529783I-5J-50017D01*
G01*
X144757705Y-91429783D02*
G75*
G02*
X144707705Y-91479805I-50005J-17D01*
G01*
X127844000Y-93740000D02*
G75*
G02*
X124646000Y-93740000I-1599000J0D01*
G01*
X124646000Y-93740000D02*
G75*
G02*
X127844000Y-93740000I1599000J0D01*
G01*
X136204204Y-84997397D02*
G75*
G02*
X125704204Y-84997397I-5250000J0D01*
G01*
X125704204Y-84997397D02*
G75*
G02*
X136204204Y-84997397I5250000J0D01*
G01*
X137934794Y-96209307D02*
G75*
G02*
X129934794Y-96209307I-4000000J0D01*
G01*
X129934794Y-96209307D02*
G75*
G02*
X137934794Y-96209307I4000000J0D01*
G01*
X138432582Y-60826666D02*
G75*
G02*
X130432582Y-60826666I-4000000J0D01*
G01*
X130432582Y-60826666D02*
G75*
G02*
X138432582Y-60826666I4000000J0D01*
G01*
X135610406Y-67853179D02*
G75*
G02*
X134860406Y-67853179I-375000J0D01*
G01*
X134860406Y-67853179D02*
G75*
G02*
X135610406Y-67853179I375000J0D01*
G01*
X144353999Y-63260000D02*
G75*
G02*
X141156001Y-63260000I-1598999J0D01*
G01*
X141156001Y-63260000D02*
G75*
G02*
X144353999Y-63260000I1598999J0D01*
G01*
%TO.C,R4*%
X167150000Y-135140000D02*
X173690000Y-135140000D01*
X167150000Y-135470000D02*
X167150000Y-135140000D01*
X167150000Y-137550000D02*
X167150000Y-137880000D01*
X167150000Y-137880000D02*
X173690000Y-137880000D01*
X173690000Y-135140000D02*
X173690000Y-135470000D01*
X173690000Y-137880000D02*
X173690000Y-137550000D01*
%TO.C,U4*%
X155775000Y-56625000D02*
X155775000Y-100375000D01*
X155775000Y-100375000D02*
X177225000Y-100375000D01*
X156030000Y-56630000D02*
X156030000Y-59760000D01*
X156030000Y-97240000D02*
X156030000Y-100355000D01*
X156030000Y-97240000D02*
X159190000Y-97240000D01*
X156604204Y-80147397D02*
X156604204Y-89847397D01*
X156706783Y-71361636D02*
X156706783Y-67761636D01*
X156806783Y-67661636D02*
X159106783Y-67661636D01*
X157081783Y-67211636D02*
X158831783Y-67211636D01*
X157081783Y-67661636D02*
X157081783Y-67211636D01*
X157081783Y-71911636D02*
X157081783Y-71461636D01*
X158104204Y-91347397D02*
X167804204Y-91347397D01*
X158595304Y-71462636D02*
X158689856Y-71462636D01*
X158831783Y-67211636D02*
X158831783Y-67661636D01*
X158831783Y-71461636D02*
X158831783Y-71911636D01*
X158831783Y-71911636D02*
X157081783Y-71911636D01*
X159106783Y-70591358D02*
X156806783Y-70591358D01*
X159106783Y-71461636D02*
X156806783Y-71461636D01*
X159190000Y-56630000D02*
X159190000Y-59760000D01*
X159190000Y-59760000D02*
X156030000Y-59760000D01*
X159190000Y-97240000D02*
X159190000Y-100355000D01*
X159206783Y-67761636D02*
X159206783Y-71361636D01*
X161693330Y-68190233D02*
X161693330Y-69030233D01*
X161693330Y-68190233D02*
X166323330Y-68190233D01*
X161693330Y-69030233D02*
X166323330Y-69030233D01*
X161693330Y-69890233D02*
X161693330Y-70730233D01*
X161693330Y-69890233D02*
X166323330Y-69890233D01*
X161693330Y-70730233D02*
X166323330Y-70730233D01*
X161693330Y-71590233D02*
X161693330Y-72430233D01*
X161693330Y-71590233D02*
X166323330Y-71590233D01*
X161693330Y-72430233D02*
X166323330Y-72430233D01*
X161693330Y-73290233D02*
X161693330Y-74130233D01*
X161693330Y-73290233D02*
X166323330Y-73290233D01*
X161693330Y-74130233D02*
X166323330Y-74130233D01*
X161693330Y-74990233D02*
X161693330Y-75830233D01*
X161693330Y-74990233D02*
X166323330Y-74990233D01*
X161693330Y-75830233D02*
X166323330Y-75830233D01*
X166323330Y-67007797D02*
X166323330Y-77012670D01*
X166323330Y-77012670D02*
X166400894Y-77090233D01*
X166400894Y-66930233D02*
X166323330Y-67007797D01*
X166400894Y-66930233D02*
X175752390Y-66930233D01*
X166400894Y-77090233D02*
X175752390Y-77090233D01*
X167804204Y-78647397D02*
X158104204Y-78647397D01*
X169304204Y-89847397D02*
X169304204Y-80147397D01*
X171757706Y-91429783D02*
X171757706Y-81529783D01*
X171807706Y-81479783D02*
X176707705Y-81479783D01*
X173810000Y-97240000D02*
X173810000Y-100400000D01*
X173810000Y-97240000D02*
X176970000Y-97240000D01*
X173815000Y-56630000D02*
X173810000Y-59760000D01*
X174120000Y-59760000D02*
X173810000Y-59760000D01*
X174385851Y-66929233D02*
X174224313Y-66929233D01*
X174409705Y-94828681D02*
X176009704Y-94828681D01*
X174409705Y-95628681D02*
X174409705Y-94828681D01*
X174729705Y-95628681D02*
X174729705Y-94828681D01*
X174907706Y-82540553D02*
X174907706Y-84619014D01*
X174963330Y-77090233D02*
X174963330Y-66930233D01*
X175382706Y-82528594D02*
X175387938Y-82504147D01*
X175382706Y-82528594D02*
X175407705Y-82540553D01*
X175382706Y-82528594D02*
X175413925Y-82535764D01*
X175407705Y-84619014D02*
X175407705Y-82540553D01*
X175439100Y-82516385D02*
X175407705Y-82540553D01*
X175689704Y-94828681D02*
X175689704Y-95628681D01*
X175752390Y-66930233D02*
X176043329Y-68580233D01*
X176009704Y-95628681D02*
X174409705Y-95628681D01*
X176009704Y-95628681D02*
X176009704Y-94828681D01*
X176043329Y-68580233D02*
X176043329Y-75440233D01*
X176043329Y-75440233D02*
X175752390Y-77090233D01*
X176707705Y-91479783D02*
X171807706Y-91479783D01*
X176757705Y-81529783D02*
X176757705Y-91429783D01*
X176758705Y-90038978D02*
X176758705Y-89994106D01*
X176758705Y-90122312D02*
X176758705Y-90088357D01*
X176970000Y-56630000D02*
X176970000Y-57930000D01*
X176970000Y-97240000D02*
X176970000Y-100355000D01*
X177225000Y-56625000D02*
X155775000Y-56625000D01*
X177225000Y-100375000D02*
X177225000Y-56625000D01*
X156604204Y-80147397D02*
G75*
G02*
X158104204Y-78647404I1499996J-3D01*
G01*
X156706783Y-67761636D02*
G75*
G02*
X156806783Y-67661583I100017J36D01*
G01*
X156806783Y-71461636D02*
G75*
G02*
X156706764Y-71361636I17J100036D01*
G01*
X157917938Y-82027611D02*
G75*
G02*
X157952053Y-82161799I-52938J-84889D01*
G01*
X157917938Y-82027611D02*
G75*
G02*
X159984410Y-79961137I793662J1272811D01*
G01*
X157952024Y-87833011D02*
G75*
G02*
X157917925Y-87967162I-87024J-49289D01*
G01*
X157952024Y-87833011D02*
G75*
G02*
X157952024Y-82161783I5002180J2835614D01*
G01*
X158104204Y-91347397D02*
G75*
G02*
X156604203Y-89847397I-4J1499997D01*
G01*
X159106783Y-67661636D02*
G75*
G02*
X159206764Y-67761636I17J-99964D01*
G01*
X159206783Y-71361636D02*
G75*
G02*
X159106783Y-71461583I-99983J36D01*
G01*
X159984417Y-90033663D02*
G75*
G02*
X160118602Y-89999555I84883J-52937D01*
G01*
X159984418Y-90033662D02*
G75*
G02*
X157917938Y-87967182I-1272858J793622D01*
G01*
X160118590Y-79995218D02*
G75*
G02*
X165789815Y-79995221I2835610J-5002182D01*
G01*
X160118591Y-79995217D02*
G75*
G02*
X159984440Y-79961118I-49291J87017D01*
G01*
X165789816Y-89999577D02*
G75*
G02*
X165923961Y-90033680I49284J-87023D01*
G01*
X165789817Y-89999576D02*
G75*
G02*
X160118588Y-89999579I-2835617J5002176D01*
G01*
X165923989Y-79961132D02*
G75*
G02*
X167990469Y-82027611I1272851J-793628D01*
G01*
X165923990Y-79961131D02*
G75*
G02*
X165789800Y-79995249I-84890J52931D01*
G01*
X167804204Y-78647397D02*
G75*
G02*
X169304203Y-80147397I-4J-1500003D01*
G01*
X167956383Y-82161783D02*
G75*
G02*
X167990488Y-82027641I87017J49283D01*
G01*
X167956383Y-82161784D02*
G75*
G02*
X167956383Y-87833011I-5002178J-2835614D01*
G01*
X167990469Y-87967183D02*
G75*
G02*
X165923982Y-90033667I-793669J-1272817D01*
G01*
X167990469Y-87967183D02*
G75*
G02*
X167956359Y-87832998I52931J84883D01*
G01*
X169304204Y-89847397D02*
G75*
G02*
X167804204Y-91347404I-1500004J-3D01*
G01*
X171757706Y-81529783D02*
G75*
G02*
X171807706Y-81479806I49994J-17D01*
G01*
X171807706Y-91479783D02*
G75*
G02*
X171757717Y-91429783I-6J49983D01*
G01*
X174927473Y-82504148D02*
G75*
G02*
X174876310Y-82516385I230227J-1075652D01*
G01*
X176707705Y-81479783D02*
G75*
G02*
X176757717Y-81529783I-5J-50017D01*
G01*
X176757705Y-91429783D02*
G75*
G02*
X176707705Y-91479805I-50005J-17D01*
G01*
X159844000Y-93740000D02*
G75*
G02*
X156646000Y-93740000I-1599000J0D01*
G01*
X156646000Y-93740000D02*
G75*
G02*
X159844000Y-93740000I1599000J0D01*
G01*
X168204204Y-84997397D02*
G75*
G02*
X157704204Y-84997397I-5250000J0D01*
G01*
X157704204Y-84997397D02*
G75*
G02*
X168204204Y-84997397I5250000J0D01*
G01*
X169934794Y-96209307D02*
G75*
G02*
X161934794Y-96209307I-4000000J0D01*
G01*
X161934794Y-96209307D02*
G75*
G02*
X169934794Y-96209307I4000000J0D01*
G01*
X170432582Y-60826666D02*
G75*
G02*
X162432582Y-60826666I-4000000J0D01*
G01*
X162432582Y-60826666D02*
G75*
G02*
X170432582Y-60826666I4000000J0D01*
G01*
X167610406Y-67853179D02*
G75*
G02*
X166860406Y-67853179I-375000J0D01*
G01*
X166860406Y-67853179D02*
G75*
G02*
X167610406Y-67853179I375000J0D01*
G01*
X176353999Y-63260000D02*
G75*
G02*
X173156001Y-63260000I-1598999J0D01*
G01*
X173156001Y-63260000D02*
G75*
G02*
X176353999Y-63260000I1598999J0D01*
G01*
%TO.C,R2*%
X128150000Y-107140000D02*
X128150000Y-107470000D01*
X128150000Y-109880000D02*
X128150000Y-109550000D01*
X134690000Y-107140000D02*
X128150000Y-107140000D01*
X134690000Y-107470000D02*
X134690000Y-107140000D01*
X134690000Y-109550000D02*
X134690000Y-109880000D01*
X134690000Y-109880000D02*
X128150000Y-109880000D01*
%TO.C,U1*%
X137990000Y-113550000D02*
X137990000Y-131450000D01*
X137990000Y-131450000D02*
X143290000Y-131450000D01*
X139640000Y-113550000D02*
X137990000Y-113550000D01*
X143290000Y-113550000D02*
X141640000Y-113550000D01*
X143290000Y-131450000D02*
X143290000Y-113550000D01*
X141640000Y-113550000D02*
G75*
G02*
X139640000Y-113550000I-1000000J0D01*
G01*
%TO.C,J1*%
X146870000Y-51847500D02*
X146870000Y-50467500D01*
X148250000Y-51847500D02*
X146870000Y-51847500D01*
X149520000Y-49087500D02*
X152170000Y-49087500D01*
X149520000Y-51847500D02*
X149520000Y-49087500D01*
X149520000Y-51847500D02*
X152170000Y-51847500D01*
X152170000Y-51847500D02*
X152170000Y-49087500D01*
%TO.C,U2*%
X158345000Y-113550000D02*
X158345000Y-131450000D01*
X158345000Y-131450000D02*
X159995000Y-131450000D01*
X161995000Y-131450000D02*
X163645000Y-131450000D01*
X163645000Y-113550000D02*
X158345000Y-113550000D01*
X163645000Y-131450000D02*
X163645000Y-113550000D01*
X159995000Y-131450000D02*
G75*
G02*
X161995000Y-131450000I1000000J0D01*
G01*
%TO.C,J4*%
X146120000Y-141450000D02*
X147500000Y-141450000D01*
X146120000Y-142830000D02*
X146120000Y-141450000D01*
X146120000Y-144100000D02*
X146120000Y-144210000D01*
X146120000Y-144100000D02*
X148880000Y-144100000D01*
X146120000Y-144210000D02*
X148880000Y-144210000D01*
X148880000Y-144100000D02*
X148880000Y-144210000D01*
%TO.C,J2*%
X146120000Y-123660000D02*
X147500000Y-123660000D01*
X146120000Y-125040000D02*
X146120000Y-123660000D01*
X146120000Y-126310000D02*
X146120000Y-126420000D01*
X146120000Y-126310000D02*
X148880000Y-126310000D01*
X146120000Y-126420000D02*
X148880000Y-126420000D01*
X148880000Y-126310000D02*
X148880000Y-126420000D01*
%TO.C,C1*%
X123530000Y-129130000D02*
X123530000Y-129460000D01*
X123530000Y-131870000D02*
X123530000Y-131540000D01*
X130070000Y-129130000D02*
X123530000Y-129130000D01*
X130070000Y-129460000D02*
X130070000Y-129130000D01*
X130070000Y-131540000D02*
X130070000Y-131870000D01*
X130070000Y-131870000D02*
X123530000Y-131870000D01*
%TO.C,D3*%
X166180000Y-103500000D02*
X167200000Y-103500000D01*
X167200000Y-102030000D02*
X167200000Y-104970000D01*
X167200000Y-104970000D02*
X172640000Y-104970000D01*
X167980000Y-102030000D02*
X167980000Y-104970000D01*
X168100000Y-102030000D02*
X168100000Y-104970000D01*
X168220000Y-102030000D02*
X168220000Y-104970000D01*
X172640000Y-102030000D02*
X167200000Y-102030000D01*
X172640000Y-104970000D02*
X172640000Y-102030000D01*
X173660000Y-103500000D02*
X172640000Y-103500000D01*
%TO.C,J6*%
X152620000Y-118580000D02*
X154000000Y-118580000D01*
X152620000Y-119960000D02*
X152620000Y-118580000D01*
X152620000Y-121230000D02*
X152620000Y-121340000D01*
X152620000Y-121230000D02*
X155380000Y-121230000D01*
X152620000Y-121340000D02*
X155380000Y-121340000D01*
X155380000Y-121230000D02*
X155380000Y-121340000D01*
%TO.C,R3*%
X167150000Y-107140000D02*
X173690000Y-107140000D01*
X167150000Y-107470000D02*
X167150000Y-107140000D01*
X167150000Y-109550000D02*
X167150000Y-109880000D01*
X167150000Y-109880000D02*
X173690000Y-109880000D01*
X173690000Y-107140000D02*
X173690000Y-107470000D01*
X173690000Y-109880000D02*
X173690000Y-109550000D01*
%TO.C,C2*%
X170840000Y-119130000D02*
X177380000Y-119130000D01*
X170840000Y-119460000D02*
X170840000Y-119130000D01*
X170840000Y-121540000D02*
X170840000Y-121870000D01*
X170840000Y-121870000D02*
X177380000Y-121870000D01*
X177380000Y-119130000D02*
X177380000Y-119460000D01*
X177380000Y-121870000D02*
X177380000Y-121540000D01*
%TD*%
M02*
