%TF.GenerationSoftware,KiCad,Pcbnew,9.0.1*%
%TF.CreationDate,2025-07-17T11:03:29+03:00*%
%TF.ProjectId,deneme3,64656e65-6d65-4332-9e6b-696361645f70,rev?*%
%TF.SameCoordinates,Original*%
%TF.FileFunction,Copper,L2,Bot*%
%TF.FilePolarity,Positive*%
%FSLAX46Y46*%
G04 Gerber Fmt 4.6, Leading zero omitted, Abs format (unit mm)*
G04 Created by KiCad (PCBNEW 9.0.1) date 2025-07-17 11:03:29*
%MOMM*%
%LPD*%
G01*
G04 APERTURE LIST*
G04 Aperture macros list*
%AMRoundRect*
0 Rectangle with rounded corners*
0 $1 Rounding radius*
0 $2 $3 $4 $5 $6 $7 $8 $9 X,Y pos of 4 corners*
0 Add a 4 corners polygon primitive as box body*
4,1,4,$2,$3,$4,$5,$6,$7,$8,$9,$2,$3,0*
0 Add four circle primitives for the rounded corners*
1,1,$1+$1,$2,$3*
1,1,$1+$1,$4,$5*
1,1,$1+$1,$6,$7*
1,1,$1+$1,$8,$9*
0 Add four rect primitives between the rounded corners*
20,1,$1+$1,$2,$3,$4,$5,0*
20,1,$1+$1,$4,$5,$6,$7,0*
20,1,$1+$1,$6,$7,$8,$9,0*
20,1,$1+$1,$8,$9,$2,$3,0*%
G04 Aperture macros list end*
%TA.AperFunction,ComponentPad*%
%ADD10R,1.600000X1.600000*%
%TD*%
%TA.AperFunction,ComponentPad*%
%ADD11O,1.600000X1.600000*%
%TD*%
%TA.AperFunction,ComponentPad*%
%ADD12R,2.200000X2.200000*%
%TD*%
%TA.AperFunction,ComponentPad*%
%ADD13O,2.200000X2.200000*%
%TD*%
%TA.AperFunction,ComponentPad*%
%ADD14R,1.905000X2.000000*%
%TD*%
%TA.AperFunction,ComponentPad*%
%ADD15O,1.905000X2.000000*%
%TD*%
%TA.AperFunction,ComponentPad*%
%ADD16R,1.700000X1.700000*%
%TD*%
%TA.AperFunction,ComponentPad*%
%ADD17C,1.600000*%
%TD*%
%TA.AperFunction,ComponentPad*%
%ADD18R,2.540000X2.540000*%
%TD*%
%TA.AperFunction,ComponentPad*%
%ADD19C,2.540000*%
%TD*%
%TA.AperFunction,ComponentPad*%
%ADD20RoundRect,0.250000X-0.550000X-0.550000X0.550000X-0.550000X0.550000X0.550000X-0.550000X0.550000X0*%
%TD*%
%TA.AperFunction,ComponentPad*%
%ADD21C,1.700000*%
%TD*%
%TA.AperFunction,ComponentPad*%
%ADD22RoundRect,0.250000X0.550000X0.550000X-0.550000X0.550000X-0.550000X-0.550000X0.550000X-0.550000X0*%
%TD*%
%TA.AperFunction,ViaPad*%
%ADD23C,2.000000*%
%TD*%
%TA.AperFunction,Conductor*%
%ADD24C,1.000000*%
%TD*%
G04 APERTURE END LIST*
D10*
%TO.P,D2,1,K*%
%TO.N,Net-(D2-K)*%
X170300000Y-114510000D03*
D11*
%TO.P,D2,2,A*%
%TO.N,+12V*%
X177920000Y-114510000D03*
%TD*%
D10*
%TO.P,D1,1,K*%
%TO.N,Net-(D1-K)*%
X130610000Y-125500000D03*
D11*
%TO.P,D1,2,A*%
%TO.N,+12V*%
X122990000Y-125500000D03*
%TD*%
D12*
%TO.P,D4,1,K*%
%TO.N,+12V*%
X139920000Y-106000000D03*
D13*
%TO.P,D4,2,A*%
%TO.N,Net-(D4-A)*%
X150080000Y-106000000D03*
%TD*%
D14*
%TO.P,Q3,1,G*%
%TO.N,/Q3_G*%
X181110000Y-108510000D03*
D15*
%TO.P,Q3,2,D*%
%TO.N,+12V*%
X183650000Y-108510000D03*
%TO.P,Q3,3,S*%
%TO.N,/OUT_B*%
X186190000Y-108510000D03*
%TD*%
D14*
%TO.P,Q4,1,G*%
%TO.N,/Q4_G*%
X181110000Y-136510000D03*
D15*
%TO.P,Q4,2,D*%
%TO.N,/OUT_B*%
X183650000Y-136510000D03*
%TO.P,Q4,3,S*%
%TO.N,GND*%
X186190000Y-136510000D03*
%TD*%
D16*
%TO.P,J7,1,Pin_1*%
%TO.N,PWM_LO2*%
X154000000Y-125040000D03*
%TD*%
D14*
%TO.P,Q2,1,G*%
%TO.N,/Q2_G*%
X121110000Y-108510000D03*
D15*
%TO.P,Q2,2,D*%
%TO.N,/OUT_A*%
X118570000Y-108510000D03*
%TO.P,Q2,3,S*%
%TO.N,GND*%
X116030000Y-108510000D03*
%TD*%
D16*
%TO.P,J3,1,Pin_1*%
%TO.N,PWM_LO1*%
X147500000Y-119960000D03*
%TD*%
D14*
%TO.P,Q1,1,G*%
%TO.N,/Q1_G*%
X121110000Y-136565000D03*
D15*
%TO.P,Q1,2,D*%
%TO.N,+12V*%
X118570000Y-136565000D03*
%TO.P,Q1,3,S*%
%TO.N,/OUT_A*%
X116030000Y-136565000D03*
%TD*%
D16*
%TO.P,J5,1,Pin_1*%
%TO.N,/OUT_B*%
X153000000Y-142830000D03*
%TD*%
D17*
%TO.P,R1,1*%
%TO.N,/Q1_G*%
X127610000Y-136510000D03*
D11*
%TO.P,R1,2*%
%TO.N,/HO_1*%
X135230000Y-136510000D03*
%TD*%
D17*
%TO.P,C3,1*%
%TO.N,/OUT_A*%
X130610000Y-120000000D03*
D11*
%TO.P,C3,2*%
%TO.N,Net-(J4-Pin_1)*%
X122990000Y-120000000D03*
%TD*%
D18*
%TO.P,U3,1,Vin*%
%TO.N,+24V*%
X143390000Y-58180000D03*
D19*
%TO.P,U3,2,GND*%
%TO.N,GND*%
X125610000Y-58180000D03*
%TO.P,U3,3,GND*%
X125610000Y-98820000D03*
%TO.P,U3,4,Vout*%
%TO.N,Net-(D4-A)*%
X143390000Y-98820000D03*
%TD*%
D17*
%TO.P,R4,1*%
%TO.N,/LO_2*%
X166610000Y-136510000D03*
D11*
%TO.P,R4,2*%
%TO.N,/Q4_G*%
X174230000Y-136510000D03*
%TD*%
D18*
%TO.P,U4,1,Vin*%
%TO.N,+24V*%
X175390000Y-58180000D03*
D19*
%TO.P,U4,2,GND*%
%TO.N,GND*%
X157610000Y-58180000D03*
%TO.P,U4,3,GND*%
X157610000Y-98820000D03*
%TO.P,U4,4,Vout*%
%TO.N,Net-(D3-A)*%
X175390000Y-98820000D03*
%TD*%
D17*
%TO.P,R2,1*%
%TO.N,/LO_1*%
X135230000Y-108510000D03*
D11*
%TO.P,R2,2*%
%TO.N,/Q2_G*%
X127610000Y-108510000D03*
%TD*%
D20*
%TO.P,U1,1,LO*%
%TO.N,/LO_1*%
X136830000Y-114880000D03*
D17*
%TO.P,U1,2,COM*%
%TO.N,GND*%
X136830000Y-117420000D03*
%TO.P,U1,3,VCC*%
%TO.N,+12V*%
X136830000Y-119960000D03*
%TO.P,U1,4,NC*%
%TO.N,unconnected-(U1-NC-Pad4)*%
X136830000Y-122500000D03*
%TO.P,U1,5,VS*%
%TO.N,/OUT_A*%
X136830000Y-125040000D03*
%TO.P,U1,6,VB*%
%TO.N,Net-(D1-K)*%
X136830000Y-127580000D03*
%TO.P,U1,7,HO*%
%TO.N,/HO_1*%
X136830000Y-130120000D03*
%TO.P,U1,8,NC*%
%TO.N,unconnected-(U1-NC-Pad8)*%
X144450000Y-130120000D03*
%TO.P,U1,9,VDD*%
%TO.N,+5V*%
X144450000Y-127580000D03*
%TO.P,U1,10,HIN*%
%TO.N,PWM_HI1*%
X144450000Y-125040000D03*
%TO.P,U1,11,SD*%
%TO.N,GND*%
X144450000Y-122500000D03*
%TO.P,U1,12,LIN*%
%TO.N,PWM_LO1*%
X144450000Y-119960000D03*
%TO.P,U1,13,VSS*%
%TO.N,GND*%
X144450000Y-117420000D03*
%TO.P,U1,14,NC*%
%TO.N,unconnected-(U1-NC-Pad14)*%
X144450000Y-114880000D03*
%TD*%
D16*
%TO.P,J1,1,Pin_1*%
%TO.N,+24V*%
X148250000Y-50467500D03*
D21*
%TO.P,J1,2,Pin_2*%
%TO.N,GND*%
X150790000Y-50467500D03*
%TD*%
D22*
%TO.P,U2,1,LO*%
%TO.N,/LO_2*%
X164805000Y-130120000D03*
D17*
%TO.P,U2,2,COM*%
%TO.N,GND*%
X164805000Y-127580000D03*
%TO.P,U2,3,VCC*%
%TO.N,+12V*%
X164805000Y-125040000D03*
%TO.P,U2,4,NC*%
%TO.N,unconnected-(U2-NC-Pad4)*%
X164805000Y-122500000D03*
%TO.P,U2,5,VS*%
%TO.N,/OUT_B*%
X164805000Y-119960000D03*
%TO.P,U2,6,VB*%
%TO.N,Net-(D2-K)*%
X164805000Y-117420000D03*
%TO.P,U2,7,HO*%
%TO.N,/HO_2*%
X164805000Y-114880000D03*
%TO.P,U2,8,NC*%
%TO.N,unconnected-(U2-NC-Pad8)*%
X157185000Y-114880000D03*
%TO.P,U2,9,VDD*%
%TO.N,+5V*%
X157185000Y-117420000D03*
%TO.P,U2,10,HIN*%
%TO.N,PWM_HI2*%
X157185000Y-119960000D03*
%TO.P,U2,11,SD*%
%TO.N,GND*%
X157185000Y-122500000D03*
%TO.P,U2,12,LIN*%
%TO.N,PWM_LO2*%
X157185000Y-125040000D03*
%TO.P,U2,13,VSS*%
%TO.N,GND*%
X157185000Y-127580000D03*
%TO.P,U2,14,NC*%
%TO.N,unconnected-(U2-NC-Pad14)*%
X157185000Y-130120000D03*
%TD*%
D16*
%TO.P,J4,1,Pin_1*%
%TO.N,Net-(J4-Pin_1)*%
X147500000Y-142830000D03*
%TD*%
%TO.P,J2,1,Pin_1*%
%TO.N,PWM_HI1*%
X147500000Y-125040000D03*
%TD*%
D17*
%TO.P,C1,1*%
%TO.N,Net-(D1-K)*%
X130610000Y-130500000D03*
D11*
%TO.P,C1,2*%
%TO.N,/OUT_A*%
X122990000Y-130500000D03*
%TD*%
D12*
%TO.P,D3,1,K*%
%TO.N,+5V*%
X164840000Y-103500000D03*
D13*
%TO.P,D3,2,A*%
%TO.N,Net-(D3-A)*%
X175000000Y-103500000D03*
%TD*%
D16*
%TO.P,J6,1,Pin_1*%
%TO.N,PWM_HI2*%
X154000000Y-119960000D03*
%TD*%
D17*
%TO.P,R3,1*%
%TO.N,/HO_2*%
X166610000Y-108510000D03*
D11*
%TO.P,R3,2*%
%TO.N,/Q3_G*%
X174230000Y-108510000D03*
%TD*%
D17*
%TO.P,C2,1*%
%TO.N,Net-(D2-K)*%
X170300000Y-120500000D03*
D11*
%TO.P,C2,2*%
%TO.N,/OUT_B*%
X177920000Y-120500000D03*
%TD*%
D23*
%TO.N,+12V*%
X173000000Y-125000000D03*
X173000000Y-118500000D03*
%TD*%
D24*
%TO.N,+12V*%
X173000000Y-125000000D02*
X173000000Y-118500000D01*
%TD*%
M02*
