%TF.GenerationSoftware,KiCad,Pcbnew,9.0.1*%
%TF.CreationDate,2025-07-17T11:03:30+03:00*%
%TF.ProjectId,deneme3,64656e65-6d65-4332-9e6b-696361645f70,rev?*%
%TF.SameCoordinates,Original*%
%TF.FileFunction,Soldermask,Top*%
%TF.FilePolarity,Negative*%
%FSLAX46Y46*%
G04 Gerber Fmt 4.6, Leading zero omitted, Abs format (unit mm)*
G04 Created by KiCad (PCBNEW 9.0.1) date 2025-07-17 11:03:30*
%MOMM*%
%LPD*%
G01*
G04 APERTURE LIST*
G04 Aperture macros list*
%AMRoundRect*
0 Rectangle with rounded corners*
0 $1 Rounding radius*
0 $2 $3 $4 $5 $6 $7 $8 $9 X,Y pos of 4 corners*
0 Add a 4 corners polygon primitive as box body*
4,1,4,$2,$3,$4,$5,$6,$7,$8,$9,$2,$3,0*
0 Add four circle primitives for the rounded corners*
1,1,$1+$1,$2,$3*
1,1,$1+$1,$4,$5*
1,1,$1+$1,$6,$7*
1,1,$1+$1,$8,$9*
0 Add four rect primitives between the rounded corners*
20,1,$1+$1,$2,$3,$4,$5,0*
20,1,$1+$1,$4,$5,$6,$7,0*
20,1,$1+$1,$6,$7,$8,$9,0*
20,1,$1+$1,$8,$9,$2,$3,0*%
G04 Aperture macros list end*
%ADD10R,1.600000X1.600000*%
%ADD11O,1.600000X1.600000*%
%ADD12R,2.200000X2.200000*%
%ADD13O,2.200000X2.200000*%
%ADD14R,1.905000X2.000000*%
%ADD15O,1.905000X2.000000*%
%ADD16R,1.700000X1.700000*%
%ADD17C,1.600000*%
%ADD18R,2.540000X2.540000*%
%ADD19C,2.540000*%
%ADD20RoundRect,0.250000X-0.550000X-0.550000X0.550000X-0.550000X0.550000X0.550000X-0.550000X0.550000X0*%
%ADD21C,1.700000*%
%ADD22RoundRect,0.250000X0.550000X0.550000X-0.550000X0.550000X-0.550000X-0.550000X0.550000X-0.550000X0*%
G04 APERTURE END LIST*
D10*
%TO.C,D2*%
X170300000Y-114510000D03*
D11*
X177920000Y-114510000D03*
%TD*%
D10*
%TO.C,D1*%
X130610000Y-125500000D03*
D11*
X122990000Y-125500000D03*
%TD*%
D12*
%TO.C,D4*%
X139920000Y-106000000D03*
D13*
X150080000Y-106000000D03*
%TD*%
D14*
%TO.C,Q3*%
X181110000Y-108510000D03*
D15*
X183650000Y-108510000D03*
X186190000Y-108510000D03*
%TD*%
D14*
%TO.C,Q4*%
X181110000Y-136510000D03*
D15*
X183650000Y-136510000D03*
X186190000Y-136510000D03*
%TD*%
D16*
%TO.C,J7*%
X154000000Y-125040000D03*
%TD*%
D14*
%TO.C,Q2*%
X121110000Y-108510000D03*
D15*
X118570000Y-108510000D03*
X116030000Y-108510000D03*
%TD*%
D16*
%TO.C,J3*%
X147500000Y-119960000D03*
%TD*%
D14*
%TO.C,Q1*%
X121110000Y-136565000D03*
D15*
X118570000Y-136565000D03*
X116030000Y-136565000D03*
%TD*%
D16*
%TO.C,J5*%
X153000000Y-142830000D03*
%TD*%
D17*
%TO.C,R1*%
X127610000Y-136510000D03*
D11*
X135230000Y-136510000D03*
%TD*%
D17*
%TO.C,C3*%
X130610000Y-120000000D03*
D11*
X122990000Y-120000000D03*
%TD*%
D18*
%TO.C,U3*%
X143390000Y-58180000D03*
D19*
X125610000Y-58180000D03*
X125610000Y-98820000D03*
X143390000Y-98820000D03*
%TD*%
D17*
%TO.C,R4*%
X166610000Y-136510000D03*
D11*
X174230000Y-136510000D03*
%TD*%
D18*
%TO.C,U4*%
X175390000Y-58180000D03*
D19*
X157610000Y-58180000D03*
X157610000Y-98820000D03*
X175390000Y-98820000D03*
%TD*%
D17*
%TO.C,R2*%
X135230000Y-108510000D03*
D11*
X127610000Y-108510000D03*
%TD*%
D20*
%TO.C,U1*%
X136830000Y-114880000D03*
D17*
X136830000Y-117420000D03*
X136830000Y-119960000D03*
X136830000Y-122500000D03*
X136830000Y-125040000D03*
X136830000Y-127580000D03*
X136830000Y-130120000D03*
X144450000Y-130120000D03*
X144450000Y-127580000D03*
X144450000Y-125040000D03*
X144450000Y-122500000D03*
X144450000Y-119960000D03*
X144450000Y-117420000D03*
X144450000Y-114880000D03*
%TD*%
D16*
%TO.C,J1*%
X148250000Y-50467500D03*
D21*
X150790000Y-50467500D03*
%TD*%
D22*
%TO.C,U2*%
X164805000Y-130120000D03*
D17*
X164805000Y-127580000D03*
X164805000Y-125040000D03*
X164805000Y-122500000D03*
X164805000Y-119960000D03*
X164805000Y-117420000D03*
X164805000Y-114880000D03*
X157185000Y-114880000D03*
X157185000Y-117420000D03*
X157185000Y-119960000D03*
X157185000Y-122500000D03*
X157185000Y-125040000D03*
X157185000Y-127580000D03*
X157185000Y-130120000D03*
%TD*%
D16*
%TO.C,J4*%
X147500000Y-142830000D03*
%TD*%
%TO.C,J2*%
X147500000Y-125040000D03*
%TD*%
D17*
%TO.C,C1*%
X130610000Y-130500000D03*
D11*
X122990000Y-130500000D03*
%TD*%
D12*
%TO.C,D3*%
X164840000Y-103500000D03*
D13*
X175000000Y-103500000D03*
%TD*%
D16*
%TO.C,J6*%
X154000000Y-119960000D03*
%TD*%
D17*
%TO.C,R3*%
X166610000Y-108510000D03*
D11*
X174230000Y-108510000D03*
%TD*%
D17*
%TO.C,C2*%
X170300000Y-120500000D03*
D11*
X177920000Y-120500000D03*
%TD*%
M02*
